/* XPM */
static char *_fb1b81b27134dbec6e3f43f1432db468AFLsm68HDV8YMhL[] = {
/* columns rows colors chars-per-pixel */
"64 64 204 2 ",
"   c None",
".  c #141212",
"X  c #1A1A1A",
"o  c #1A1714",
"O  c #0C0D0F",
"+  c #251D18",
"@  c #2F240F",
"#  c #23211E",
"$  c #2B241B",
"%  c #2C2414",
"&  c #372B19",
"*  c #3D3016",
"=  c #2B2B2C",
"-  c #252523",
";  c #322B25",
":  c #3D2E26",
">  c #312620",
",  c #3C3528",
"<  c #3E3D3C",
"1  c #453415",
"2  c #4B392A",
"3  c #493729",
"4  c #543E23",
"5  c #443C35",
"6  c #5E4412",
"7  c #604615",
"8  c #624718",
"9  c #6A4D1B",
"0  c #66491C",
"q  c #74571F",
"w  c #57422A",
"e  c #4F463A",
"r  c #5D4536",
"t  c #544C3B",
"y  c #594936",
"u  c #654927",
"i  c #73522B",
"p  c #7F5828",
"a  c #624A3A",
"s  c #6D4F34",
"d  c #6D5032",
"f  c #6C533B",
"g  c #755531",
"h  c #7A5533",
"j  c #7E5C3C",
"k  c #795A37",
"l  c #6B552B",
"z  c #7D622A",
"x  c #7D6433",
"c  c #494848",
"v  c #534D43",
"b  c #585348",
"n  c #595755",
"m  c #735341",
"M  c #7C5A46",
"N  c #655E56",
"B  c #655344",
"V  c #696358",
"C  c #6F705C",
"Z  c #6F634E",
"A  c #6A6868",
"S  c #716B61",
"D  c #7B7668",
"F  c #6C6D70",
"G  c #797777",
"H  c #8B5C34",
"J  c #964F35",
"K  c #8D6D2F",
"L  c #886B37",
"P  c #926D3E",
"I  c #937439",
"U  c #9C7A37",
"Y  c #956229",
"T  c #A56B35",
"R  c #AB7739",
"E  c #845E41",
"W  c #815D49",
"Q  c #8D654D",
"!  c #87634A",
"~  c #93694E",
"^  c #986B4E",
"/  c #9B7747",
"(  c #946A52",
")  c #956A52",
"_  c #9E7351",
"`  c #886C57",
"'  c #A47B4E",
"]  c #A37B4A",
"[  c #B87845",
"{  c #A06F51",
"}  c #A17652",
"|  c #A2775B",
" . c #827D74",
".. c #AE893F",
"X. c #A8843A",
"o. c #9D8141",
"O. c #AC834D",
"+. c #AA8549",
"@. c #B28D43",
"#. c #B68C4C",
"$. c #AF904A",
"%. c #BC934B",
"&. c #BA9548",
"*. c #A88554",
"=. c #B18554",
"-. c #B99654",
";. c #82816C",
":. c #888479",
">. c #918F79",
",. c #95947D",
"<. c #C98349",
"1. c #D38446",
"2. c #D58B4D",
"3. c #DC8C4C",
"4. c #D1874A",
"5. c #C0974A",
"6. c #C59C4A",
"7. c #CF8F57",
"8. c #D38B52",
"9. c #D98E53",
"0. c #D7965F",
"q. c #E69452",
"w. c #E59A5D",
"e. c #C9A14F",
"r. c #CAA453",
"t. c #D3AF5E",
"y. c #D6B25F",
"u. c #C08B62",
"i. c #CC9162",
"p. c #D49661",
"a. c #D99C66",
"s. c #C99B75",
"d. c #E99F61",
"f. c #DEA36E",
"g. c #D6B462",
"h. c #D9B765",
"j. c #DEBD6A",
"k. c #DBB966",
"l. c #DAA577",
"z. c #E8A46A",
"x. c #E7AF7B",
"c. c #E5A872",
"v. c #F0AE75",
"b. c #EBB07B",
"n. c #7A7A80",
"m. c #858383",
"M. c #8C8B89",
"N. c #908F8E",
"B. c #948F84",
"V. c #94918E",
"C. c #9A958C",
"Z. c #9D9A8C",
"A. c #979585",
"S. c #9E9A92",
"D. c #979697",
"F. c #A19E94",
"G. c #AD968A",
"H. c #A5A48F",
"J. c #AAAA9B",
"K. c #A4A395",
"L. c #9C9CA2",
"P. c #ADAAA3",
"I. c #AEADAC",
"U. c #A2A1A6",
"Y. c #B5B2AC",
"T. c #BDBDAC",
"R. c #B5B4A2",
"E. c #ADADB4",
"W. c #B0AFB2",
"Q. c #B3B3B4",
"!. c #BAB9B6",
"~. c #BDBCBA",
"^. c #B6B6B8",
"/. c #DDAE83",
"(. c #ECB581",
"). c #F1BB88",
"_. c #C1BAB9",
"`. c #F6C695",
"'. c #F8C897",
"]. c #F5C28F",
"[. c #C3C2BB",
"{. c #C1C1B5",
"}. c #BEBEC6",
"|. c #C0BFC7",
" X c #C6C6C2",
".X c #C5C5CC",
"XX c #CDCDCE",
"oX c #CFD0CF",
"OX c #D2D1CE",
"+X c #D4D4C7",
"@X c #CCCCD3",
"#X c #D2D3D4",
"$X c #D4D4D9",
"%X c #DBDCDC",
"&X c #D9DAD5",
"*X c #E6D8D4",
"=X c #DFDFE1",
"-X c #DFE0E2",
";X c #E5E5E5",
":X c #EAEAEA",
">X c #F0F0EC",
",X c #F3F3F3",
"<X c #FEFEFE",
"1X c #F9F9F7",
/* pixels */
"                                                                                                                                ",
"                                                                                                                                ",
"                                                                                                                                ",
"                                                                                                                                ",
"                                                                                                                                ",
"                                                                                                                                ",
"                                                                                                                                ",
"                                                                                                                                ",
"                                                                                                                                ",
"                                                                                                                                ",
"                                                                                                                                ",
"                                                                                                                                ",
"                    H.:.                                                                                                        ",
"                  [.1X:XS.                                                                                                      ",
"              Z ;.;X<X<X+Xb                                                                                                     ",
"            T.!.Z.$X,X<X;XN.                    N V                                                                             ",
"          R.1X:X.X.X$X;X;X%Xm.                v I.oXK.S                                                                         ",
"          R.,X;X.X.X.X.X$X;X;XS.N               D.@X XJ.V.C.C.Z.C.:.S         J.T.H.                                            ",
"          A.~.@X.X}.|..X.X@X$X=X@XD.c $ K U p   b E.T.+X,X<X<X<X<X:X!.F. .J.[.:X1XP.                                            ",
"            ,.D N c n U.E.Q.}.@X$X@XE.N.L 6.+.u ; V.,X<X<X<X<X<X<X<X>X;X#X1X<X,X_.D                                             ",
"                      = = e m.D.D.^.@X^.w &.&.j G :X<X<X<X<X<X<X<X<X:X:X:X:X;X!.<                                               ",
"                              X - A G F f &.6.t %X<X<X<X<X<X<X<X<X:X;X;X-X=X$Xn                                                 ",
"                                    2 a ~ O.*.Z.,X<X<X<X<X<X<X<X>X;X;X;X$X.XI.G                                                 ",
"                                    0 M Q _ Z  X,X1X<X1X<X<X,X:X;X;X;X;X.X.XJ.!.V.                                              ",
"                                      $ u H b !.:X:X;X:X:X;X;X;X=X[.~.#X@X.X!..XI.X                                             ",
"                                          6 @ F %X;X;X;X;X;X;X%XK.D K.&X=X#X!.V.F                                               ",
"                                            * ; XX:X;X;X;X;X~.B.K.F.;X;X;X;X%XV.#                                               ",
"                                              , XX<X1X1X:XQ.t J *XXX;X;X;X%X@X>.-                                               ",
"                                              c ;X<X<X1XP. .N J *X-X;X;X{.;.C ,                                                 ",
"                                              >.>X<X<X[.D  .Z.R.$X:X,X&X;.3 w w                                                 ",
"                                            t S.1X<X>XB.P.@X;X;X:X,X<XP.t m ( Q a r f 9 6 6 6 7                                 ",
"                                            t W.1X<XP.D.XX-X;X;X#X%X$X;., ~ ( ( ) ) O...X.@.-.-./                               ",
"                                            # }.<X:XV.E.-X-X XF.B t e 5 M ( ( ( ( ( ' 6.6.6.e.y.g.$.z                           ",
"                                            X E.<XY.V..X$X^.N H 3.3.<.^ ( ( ( ( ( ( ) =.#.6.6.r.k.j.h.o.                        ",
"                                            . n XXN.M.@XW.D ! 8.q.q.q.[ ~ ( ( ( ( E 4 3 2 L 6.5.O.I I $.g                       ",
"                                              - L.L.L.L.n   | 9.q.q.q.9.} ( ( Q g h m >     L *.i k j d x o                     ",
"                                                = = = =     s.z.d.d.d.(./.| ( ( Q ~ ~ W :   >  .l 0 s r #                       ",
"                                                            u.b.).`.`.`.).i._ ( ( ~ ( ( M : O o       o                         ",
"                                                            =.w.a.p.p.p.a.c.l.| ~ ~ ( ( ) a @                                   ",
"                                                          x =.b.b.b.x.x.(.`.`.i._ ~ *.%.%.] 3 1 7     1 x                       ",
"                                                        } &.K <.(.'.'.'.'.).x.8.T P t.h.r.6.] 4 h 4 , U ..q q %                 ",
"                                                        +.6.U Y 4.f.f.f.f.a.8.7.l -.j.j.g.6.6.K f Q ' 5.e.6.I &                 ",
"                                                      9 @.6.6.R Y <.1.1.8.c.v.p.4 r.j.j.g.6.6.@.u Q ( ' ] L ,                   ",
"                                                      9 @.6.6.5.H J R 2.q.z.z.4.i +.y.h.r.6.6.' H d W M : #                     ",
"                                                      8 P #.#.} ` 4 + H T <.1.1.[ g $.6.6.6.5._ m X + +                         ",
"                                                        4 ( ) ) Q 5     & J H H H u 2 L O.#.} ) m .                             ",
"                                                      b S.G.( W 2                       h ( ( ) m .                             ",
"                                                      = c e ;                             g G.!.` 1                             ",
"                                                                                            m.~.G                               ",
"                                                                                              #                                 ",
"                                                                                                                                ",
"                                                                                                                                ",
"                                                                                                                                ",
"                                                                                                                                ",
"                                                                                                                                ",
"                                                                                                                                ",
"                                                                                                                                ",
"                                                                                                                                ",
"                                                                                                                                ",
"                                                                                                                                ",
"                                                                                                                                ",
"                                                                                                                                ",
"                                                                                                                                ",
"                                                                                                                                "
};
