/* XPM */
static char *result[] = {
/* columns rows colors chars-per-pixel */
"43 46 18 1 ",
"  c black",
". c #0F071E",
"X c #0D081E",
"o c #0F081E",
"O c #1C1325",
"+ c #1A1524",
"@ c #2A1A43",
"# c #990000",
"$ c #D13500",
"% c #F88157",
"& c #4F2499",
"* c #895FB9",
"= c #895FBA",
"- c #B291D9",
"; c #B292D9",
": c #BAC9F1",
"> c #F8F8F8",
", c None",
/* pixels */
",,,,,,,,,,,,,,,,,,,,,,,,,,,,,,,,,,,,,,,,,,,",
",,,,,,,,,,,,,,,,,,,,,,,,,,,,,,,,,,,,,,,,,,,",
",,,,,,,,,,,,,,,,,,,,,,,,,,,,,,,,,,,,,,,,,,,",
",,,,,,,,,,,,,,,,,,,,,,,,,,,,,,,,,,,,,,,,,,,",
",,,,,,,,,,,,,,,,,,,,,,,,,,,,,,,,,,,,,,,,,,,",
",,,,,,,,,,,,,,,,,,,,,,,,,,,,,,,,,,,,,,,,,,,",
",,,,,,,,,,,,,,,,,,,,,,,,,,,,,,,,,,,,,,,,,,,",
",,,,,,,,,,,,,,,,,,,,,,,,,,,,,,,,,,,,,,,,,,,",
",,,,,,,,,,,,,,,,,,,,,,,,,,,,,,,,,,,,,,,,,,,",
",,,,,,,,,,,,,,,,,,,,,,,,,,,,,,,,,,,,,,,,,,,",
",,,,,,,,,,,,,,,,,,, = ,,,,,,,,,,,,,,,,,,,,,",
",,,,,,,,,,,,,,,,,,+ - ,,,,,,,,,,,,,,,,,,,,,",
",,,,,,,,,,,,,      =-= ,,,,,,,,,,,,,,,,,,,,",
",,,,,,,,,,,, ;-     && ,,,,,,,,,,,,,,,,,,,,",
",,,,,,,,,,, ;=   &&&    ,,,,,,,,,,,,,,,,,,,",
",,,,,,,,,, ;=  ====&&&&& ,,,,,,,,,,,,,,,,,,",
",,,,,,,,,, - ========   & ,,,,,,,,,,,,,,,,,",
",,,,,,,,,,  =-=====  =- && ,,,,,,,,,,,,,,,,",
",,,,,,,,,,o -===== =--= && ,,,,,,,,,,,,,,,,",
",,,,,,,,,, &-=====---=& &&& ,,,,,,,,,,,,,,,",
",,,,,,,,,, =--==----==&  && ,,,,,,,,,,,,,,,",
",,,,,,,,,, =-------==&=-& & ,,,,,,,,,,,,,,,",
",,,,,,,,,, ==---= ====-= && ,,,,,,,,,,,,,,,",
",,,,,,,,,, ====  :=====   & ,,,,,,,,,,,,,,,",
",,,,,,,,,, &== ::>==&=& =&  ,,,,,,,,,,,,,,,",
",,,,,,,,,, &   >>>==#===& & X,,,,,,,,,,,,,,",
",,,,,,,,,,, &: >>==&$=== &&&  ,,,,,,,,,,,,,",
",,,,,,,,,,,, =====&#$==&&&&&=&  ,,,,,,,,,,,",
",,,,,,,,,,,,, &&$&$%#&&&&&&&&==&,,,,,,,,,,,",
",,,,,,,,,,,,,,  $&$#&&&&&&      ,,,,,,,,,,,",
",,,,,,,,,,,,,,,,          ,,,,,,,,,,,,,,,,,",
",,,,,,,,,,,,,,,,,,,,,,,   ,,,,,,,,,,,,,,,,,",
",,,,,,,,,,,,,,,,,,,,,,,      ,,,,,,,,,,,,,,",
",,,,,,,,,,,,,,,,,,,,,, =--==&  ,,,,,,,,,,,,",
",,,,,,,,,,,,,,,,,,,,, &-=&--==& ,,,,,,,,,,,",
",,,,,,,,,,,,,,,,,,,,, -&  &---= ,,,,,,,,,,,",
",,,,,,,,,,,,,,,,,,,,, = . -===& ,,,,,,,,,,,",
",,,,,,,,,,,,,,,,,,,,,,*  -= && ,,,,,,,,,,,,",
",,,,,,,,,,,,,,,,,,,,,,,O - @  ,,,,,,,,,,,,,",
",,,,,,,,,,,,,,,,,,,,,,,, = ,,,,,,,,,,,,,,,,",
",,,,,,,,,,,,,,,,,,,,,,,,,,,,,,,,,,,,,,,,,,,",
",,,,,,,,,,,,,,,,,,,,,,,,,,,,,,,,,,,,,,,,,,,",
",,,,,,,,,,,,,,,,,,,,,,,,,,,,,,,,,,,,,,,,,,,",
",,,,,,,,,,,,,,,,,,,,,,,,,,,,,,,,,,,,,,,,,,,",
",,,,,,,,,,,,,,,,,,,,,,,,,,,,,,,,,,,,,,,,,,,",
",,,,,,,,,,,,,,,,,,,,,,,,,,,,,,,,,,,,,,,,,,,"
};
