/* XPM */
static char *_685acb2ae544606e3cbd2473a1a9ea3GlQU7bsi8ybE0iZn[] = {
/* columns rows colors chars-per-pixel */
"37 37 16 1 ",
"  c None",
". c black",
"X c #990000",
"o c #9A0000",
"O c #D13500",
"+ c #F88157",
"@ c navy",
"# c #000081",
"$ c #000096",
"% c #00009A",
"& c #00009E",
"* c #0000B3",
"= c #4F2499",
"- c blue",
"; c #BAC9F1",
": c #F8F8F8",
/* pixels */
"                                     ",
"                                     ",
"                                     ",
"                        @@@          ",
"                      *@---@         ",
"            @@      @-@-@---@        ",
"           @--@   @@-----@--@        ",
"           @---@*@-@----@*@@         ",
"           @----@---@---@&           ",
"            @------------@           ",
"            @-------------@          ",
"           @----====-----@-@@        ",
"          @-;-=......=---@---@       ",
"         ---;..........---@---@      ",
"        *@--:..X........=-----@      ",
"        @--=:;.O.X.....;@----@       ",
"       @---;::O=.O...;::@----@       ",
"       @--=;;:@..O=:::::-=--@*      @",
"        @-=;=:...;::::::.=---@      @",
"        @-=.@;..-::::::..=---@@ -    ",
"        @-=.-=..;:=:::...=---@$@-@   ",
"        ---.X...=;-:;....---@% -@    ",
"        @--.:XX...=.....=---@%       ",
"         @-XXXXXXX:XX...-----@       ",
"         @X++OXOOXXXOX.-------@      ",
"         XOOO+OXOXXOX.-----@--@      ",
"         XXXXOOOX.X.=-----@*@@       ",
"          ..XXX.  @@@--@--@          ",
"            ...      @@*@@           ",
"                                     ",
"                                     ",
"                                     ",
"                                     ",
"                                     ",
"                                     ",
"                                     ",
"                                     "
};
