/* XPM */
static char *_d672e7d31164194d215fa19b9740a4e9MYZMKNMlzepMQnB[] = {
/* columns rows colors chars-per-pixel */
"37 37 22 1 ",
"  c None",
". c black",
"X c #24287D",
"o c #990000",
"O c #D13500",
"+ c #F88157",
"@ c navy",
"# c #000081",
"$ c #00009A",
"% c #00009B",
"& c #00199A",
"* c #001A9B",
"= c #0000B3",
"- c #4F2499",
"; c #50249A",
": c #0019CC",
"> c #0005D2",
", c blue",
"< c #008181",
"1 c #B9C9F1",
"2 c #BAC9F1",
"3 c #F8F8F8",
/* pixels */
"                                     ",
"                                     ",
"                                     ",
"                  #,#                ",
"                #=#,,#      ,        ",
"                ,#,##     :,,,       ",
"                         ,,<,        ",
"                         #,#&        ",
"                          #          ",
"              ###  X#                ",
"             #,,,##,,#%###      #    ",
"          ###,,,,,,,,,##,,#    ,,,   ",
"         #,,,,,,,,,,,,,,,#    #,,>   ",
"         #,,,,,,,,,,,,,,#=   #,,#&   ",
"         #,,,,----,,,,,,,#    ##<,   ",
"          #,-......-,,,,,,#     X#   ",
"         X#..........,,,,,#          ",
"        #2...........-,,,,#%         ",
"       #,2............-,,,,###,      ",
"      #,,3.o.........-.,,,,,,##      ",
"      #,-32O..o.....2#.-,,,,,#       ",
"      #,-33O..O...333#.-,,,,#        ",
"      #,-23#..O-33333,.-,###         ",
"       #-2-3..2333333..-,#%          ",
"        #.#2..3333332..,,,           ",
"         .,-..23-333..-,,#           ",
"          o...-2,32...,#X            ",
"           oo...-.Oo.,#%             ",
"            O+OO3Oo.,,#              ",
"             ;o.o.-,,#               ",
"                ,##,,#               ",
"                   ##                ",
"                                     ",
"                                     ",
"                                     ",
"                                     ",
"                                     "
};
