/* XPM */
static char *result[] = {
/* columns rows colors chars-per-pixel */
"42 44 19 1 ",
"  c black",
". c #0F071E",
"X c #0D081E",
"o c #130D1A",
"O c #170F20",
"+ c #1C1325",
"@ c #1C1424",
"# c #2A1A43",
"$ c #990000",
"% c #D13500",
"& c #F88157",
"* c #4F2499",
"= c #895FB9",
"- c #895FBA",
"; c #B291D9",
": c #B292D9",
"> c #BAC9F1",
", c #F8F8F8",
"< c None",
/* pixels */
"<<<<<<<<<<<<<<<<<<<<<<<<<<<<<<<<<<<<<<<<<<",
"<<<<<<<<<<<<<<<<<<<<<<<<<<<<<<<<<<<<<<<<<<",
"<<<<<<<<<<<<<<<<<<<<<<<<<<<<<<<<<<<<<<<<<<",
"<<<<<<<<<<<<<<<<<<<<<<<<<<<<<<<<<<<<<<<<<<",
"<<<<<<<<<<<<<<<<<<<<<<<<<<<<<<<<<<<<<<<<<<",
"<<<<<<<<<<<<<<<<<<<<<<<<<<<<<<<<<<<<<<<<<<",
"<<<<<<<<<<<<<<<<<<<<<<<<<<<<<<<<<<<<<<<<<<",
"<<<<<<<<<<<<<<<<<<<<<<<<<<<<<<<<<<<<<<<<<<",
"<<<<<<<<<<<<<<<<<<<<<<<<<<<<<<<<<<<<<<<<<<",
"<<<<<<<<<<<<<<<<<<<<<< - <<<<<<<<<<<<<<<<<",
"<<<<<<<<<<<<<<<<<<<<<@ ; <<<<<<<<<<<<<<<<<",
"<<<<<<<<<<<<<<<<<<<<  -;- <<<<<<<<<<<<<<<<",
"<<<<<<<<<<<<<<<<<<     ** <<<<<<<<<<<<<<<<",
"<<<<<<<<<<<<<<<<<   ***    <<<<<<<<<<<<<<<",
"<<<<<<<<<<<<<<<<  ----***** <<<<<<<<<<<<<<",
"<<<<<<<<<<<<<<< --------   * <<<<<<<<<<<<<",
"<<<<<<<<<<<<<< -;-----  -; ** <<<<<<<<<<<<",
"<<<<<<<<<<<<<X ;----- -;;- ** <<<<<<<<<<<<",
"<<<<<<<<<<<   *;-----;;;-* *** <<<<<<<<<<<",
"<<<<<<<<<< :; -;;--;;;;--*  ** <<<<<<<<<<<",
"<<<<<<<<< :-- -;;;;;;;--*-;* * <<<<<<<<<<<",
"<<<<<<<< :-   --;;;- ----;- ** <<<<<<<<<<<",
"<<<<<<<< ; o  ----  >-----   * <<<<<<<<<<<",
"<<<<<<<<<- O  *-- >>,--*-* -*  <<<<<<<<<<<",
"<<<<<<<<<<< = *   ,,,--$---* * X<<<<<<<<<<",
"<<<<<<<<<<<<<  *> ,,--*%--- ***  <<<<<<<<<",
"<<<<<<<<<<<<<<< -----*$%--*****-*  <<<<<<<",
"<<<<<<<<<<<<<<<< **%*%&$********--*<<<<<<<",
"<<<<<<<<<<<<<<<<<  %*%$******      <<<<<<<",
"<<<<<<<<<<<<<<<<<<<          <<<<<<<<<<<<<",
"<<<<<<<<<<<<<<<<<<<  <<<<<<<<<<<<<<<<<<<<<",
"<<<<<<<<<<<<<<<      <<<<<<<<<<<<<<<<<<<<<",
"<<<<<<<<<<<<<< -;;--*  <<<<<<<<<<<<<<<<<<<",
"<<<<<<<<<<<<< *;-*;;--* <<<<<<<<<<<<<<<<<<",
"<<<<<<<<<<<<< ;*  *;;;- <<<<<<<<<<<<<<<<<<",
"<<<<<<<<<<<<< - . ;---* <<<<<<<<<<<<<<<<<<",
"<<<<<<<<<<<<<<=  ;- ** <<<<<<<<<<<<<<<<<<<",
"<<<<<<<<<<<<<<<+ ; #  <<<<<<<<<<<<<<<<<<<<",
"<<<<<<<<<<<<<<<< - <<<<<<<<<<<<<<<<<<<<<<<",
"<<<<<<<<<<<<<<<<<<<<<<<<<<<<<<<<<<<<<<<<<<",
"<<<<<<<<<<<<<<<<<<<<<<<<<<<<<<<<<<<<<<<<<<",
"<<<<<<<<<<<<<<<<<<<<<<<<<<<<<<<<<<<<<<<<<<",
"<<<<<<<<<<<<<<<<<<<<<<<<<<<<<<<<<<<<<<<<<<",
"<<<<<<<<<<<<<<<<<<<<<<<<<<<<<<<<<<<<<<<<<<"
};
