/* XPM */
static char *_7212825bbc14de5ac9c76a5631dfba85KoU8sLIFQ9cvidR[] = {
/* columns rows colors chars-per-pixel */
"35 51 40 1 ",
"  c None",
". c #08080F",
"X c #070710",
"o c #080810",
"O c #080811",
"+ c #0A0A10",
"@ c #1F0C10",
"# c #13131B",
"$ c #1F1319",
"% c #2B2A10",
"& c #2B2B10",
"* c #191921",
"= c #7B1919",
"- c #4E2A2D",
"; c #756F10",
": c #524129",
"> c #524229",
", c #534229",
"< c #52402B",
"1 c #52422A",
"2 c #565037",
"3 c #675A23",
"4 c #675924",
"5 c #6B4138",
"6 c #41414A",
"7 c #42424A",
"8 c #7B4141",
"9 c #7B4242",
"0 c #7C4242",
"q c #C52931",
"w c #8F514A",
"e c #BDB60F",
"r c #BDB510",
"t c #BEB510",
"y c #BDB611",
"u c #DE9473",
"i c #DE9574",
"p c #F7F79C",
"a c #FFD6B5",
"s c #DEDEF7",
/* pixels */
"                                   ",
"                                   ",
"                                   ",
"                                   ",
"                                   ",
"                                   ",
"               ,++O                ",
"              ,,++OO               ",
"              ,,pppp.+             ",
"             -,,pppp+.2            ",
"            >>>>>>pppp>>+          ",
"           3>>>>>>pppp>>O+         ",
"         +>>ttppppppppppyt.+       ",
"        XX>>ttppppppppppeto.       ",
"      +Xppppppppppppssppppye+      ",
"      .+ppppppppppppssppppeyo+     ",
"     Xpprrppppsssspppppprrpp>>     ",
"    +Xpprrppppsssspppppprrpp>>3    ",
"    >>rrpppptypppppppprrpppptt>    ",
"    >>rrpppprypppppppprrpppptt>>   ",
"    yyerpprrpppptypprrpprryyppoo   ",
"   ;trrrpprrpppprepprrpprrytppoo   ",
"   .rrrr>>rrpppprrpprrrrppppppoo   ",
"  X+rrrr>>rrpppprrpprrrrppppppoo   ",
"  oott>>99+opppp>>ppyy998899yrXX   ",
"  X+tt>>89Xopppp>>ppry999999yr+    ",
"  >>>>4599+Xpppp>>pprr89aa99XX%    ",
"   ,>   88XXpppp>>pprr88aa99++     ",
"        ii++pppp>>pprruuaattX+     ",
"        iiXXpppp>>ppreuuaattX      ",
"        88uupppp>>rrtyXXyeX.%      ",
"         8uupppp>>rrttoXeyX+X      ",
"         w09ppppXXtyXo77+ooo.+     ",
"         -09pppp++ttoo77oooo+.     ",
"        +X89pp+o66X+6777**6666.    ",
"        +X88ppoo66++6677**7766.    ",
"       Xaaaa677766**77777767+o     ",
"      +Xaaaa667766**77767766o+     ",
"      +Xuuiu77**+XX+**6677+o#      ",
"       +uuii77**XX++**6677oo       ",
"        .+89+o====6667X+X++O       ",
"        +X88oo====6677++XXX        ",
"         $.Xoo******7777+X+        ",
"          +Xoo******7777+X         ",
"          O+ooooX+==qqqqX+         ",
"           OooOOX+==qqqqX          ",
"                 @X++XXX           ",
"                   OOX+            ",
"                                   ",
"                                   ",
"                                   "
};
