/* XPM */
static char *db56135255a548d1f13d9e3a82427df7BNcFun9PqkTa1ypN[] = {
/* columns rows colors chars-per-pixel */
"38 56 40 1 ",
"  c None",
". c #08080F",
"X c #070710",
"o c #080810",
"O c #080811",
"+ c #0A0A10",
"@ c #0B0B14",
"# c #2D0E15",
"$ c #2B2A10",
"% c #191921",
"& c #7B1919",
"* c #7B1A1A",
"= c #4E2B2D",
"- c #756F10",
"; c #524129",
": c #524229",
"> c #534229",
", c #52402B",
"< c #52422A",
"1 c #565037",
"2 c #675A23",
"3 c #614033",
"4 c #41414A",
"5 c #42424A",
"6 c #7B4141",
"7 c #7B4242",
"8 c #7C4242",
"9 c #676748",
"0 c #63637B",
"q c #C52931",
"w c #BDB60F",
"e c #BDB510",
"r c #BEB510",
"t c #BDB611",
"y c #DE9473",
"u c #C5AD77",
"i c #F5F59B",
"p c #F7F79C",
"a c #FFD6B5",
"s c #DEDEF7",
/* pixels */
"                                      ",
"                                      ",
"                                      ",
"                                      ",
"                                      ",
"                                      ",
"                                      ",
"                                      ",
"                                      ",
"                :OOo                  ",
"               ::O+o.                 ",
"               ::pppp.+               ",
"              =::pppp+.1              ",
"             >>>:::pppp:>+            ",
"            2>>>:::pppp:>++           ",
"          O>>eepppppppppptw+@         ",
"         Xo::eeppppppppppeeO.         ",
"       +Xppppppppppppssppppee.        ",
"       ..ppppppppppppssppppewOO       ",
"      .ppeeppppssssppppppeepp:>       ",
"     OOppeeppppssssppppppeepp::2      ",
"     ::eeppppeeppppppppeeppppee:      ",
"     :>eeppppeeppppppppeeppppwe>>     ",
"     eeeeppeeppppweppeeppeeeeppOO     ",
"    -weeeppeeppppeeppeeppeeeeppOO     ",
"    .eeee::eeppppeeppeeeepppppp.O     ",
"   OOeeee::eeppppeeppeeeeppppppOO     ",
"   O.ee::77oopppp>>ppee787777ee.O     ",
"   OOwe>:77oopppp>>ppee777777we.      ",
"   >::>0077oopppp>:ppee77aa77O.$      ",
"    >>>0077oopppp::ppee77aa77..O      ",
"    387yyyyoopppp::ppeeyyaaeeO..+     ",
"     77yyyyO.pppp>>ppeeyyaaeeO.O.     ",
"     77yy77yypppp>>eeeeooeeo.%%55X    ",
"      8yy77yypppp>>eeeeooeeoO%%55.O   ",
"       877777ppppoXeeXo55ooo.55.OOO   ",
"        77778ppppooeeoo55oooo55X..    ",
"            uppOo55oo55ooaaaa77X.     ",
"             ip.o55oo55ooaaaa77XO     ",
"              9.oqq55%%.oyyyy77=      ",
"              @..qq55%%..yyyy88       ",
"             O.%%55qqqq**7777OO       ",
"             .O%%55qqqq**7777.O       ",
"            .qq5555%%%%qqqqO.OO       ",
"           OOqq5555%%%%qqqq.O.        ",
"           O.O.qqqqOoo.**&*..         ",
"            ..OqqqqOooO****o          ",
"             .O..O.#                  ",
"              OOOO                    ",
"                                      ",
"                                      ",
"                                      ",
"                                      ",
"                                      ",
"                                      ",
"                                      "
};
