/* XPM */
static char *ad3a5ceb41a049b9fd1262d388dafd17pSFb76UwFiQDtWmT[] = {
/* columns rows colors chars-per-pixel */
"47 67 38 1 ",
"  c None",
". c #08080F",
"X c #080810",
"o c #080811",
"O c #1F0B10",
"+ c #14141B",
"@ c #2D0E16",
"# c #241F19",
"$ c #2B2A10",
"% c #342A1F",
"& c #181821",
"* c #191921",
"= c #1A1A21",
"- c #361F24",
"; c #3C262A",
": c #36362B",
"> c #7B1919",
", c #57362D",
"< c #484119",
"1 c #524129",
"2 c #524229",
"3 c #534229",
"4 c #555036",
"5 c #74653F",
"6 c #41414A",
"7 c #42424A",
"8 c #7B4242",
"9 c #7C4242",
"0 c #C52931",
"q c #8F514A",
"w c #AD7B41",
"e c #AD7B42",
"r c #BDB510",
"t c #BEB510",
"y c #DE9473",
"u c #F7F79C",
"i c #FFD6B5",
"p c #DEDEF7",
/* pixels */
"                                               ",
"                                               ",
"                                               ",
"                                               ",
"                                               ",
"                                               ",
"                                               ",
"                                               ",
"                                               ",
"                                               ",
"                                               ",
"                                               ",
"                                               ",
"                  oo                           ",
"                 o.o.:                         ",
"                 33uu.ooo3                     ",
"                #33uuXXXX22;                   ",
"              XXXXX33uuuu22XXX                 ",
"            4XXXXXX32uuuu22XXX.$               ",
"        3XX33uuppuuuurruurruurr.               ",
"       32XX22uuppuuuurruurruurrX.<             ",
"       32uuuuuuuuppppuuuuuuuuuurr3             ",
"        2uuuuuuuuppppuuuuuuuuuurr33            ",
"        522uurruuuuuuuuppppppuuuuoo            ",
"        433uurruuuuuuuuppppppuuuu.o            ",
"        .uurruuuurruuuuuurruuuurrXo            ",
"      :.XuurruuuurruuuuuurruuuurrXX            ",
"      .uu33rruuuurruuuurryyuurrrrXX            ",
"     oXuu33rruuuurruuuurryyuurrrr.o,           ",
"     3332rruuuurruuuuuurriiyyuurree9           ",
"      332rruuuurruuuuuurriiyyuurree88          ",
"        <.Xuuuurruuuurriiiiiirr88yy88          ",
"         XXuuuurruuuurriiiiiirr88yy8           ",
"         XX23rr88XXXXiiXoiiiirryy88q           ",
"         oX33rr88XXXXiiX.iiiirryy89;           ",
"         oX338900pp00XX88iiyyyy88o..           ",
"         oo338800pp00XX88iiyyyy99.o.o          ",
"         88yyo.66>>>>XXyyyy88o.6666oo          ",
"         88yy.o66>>>>XXyyyy88.o6776.           ",
"         88yyo.ppppppXXXX==66==67o.+           ",
"          9yyo.pppppp.o.X=&66=&66.             ",
"          q9888o.o.ooiiyy8866==X.+             ",
"           8888.o.o.oiiyy8866==Xo              ",
"           88.o89yy88yyyy88==o.Xo              ",
"            8XX88yy88yyyy88==.o.o              ",
"            ;&&>>888888.o..==77oo              ",
"             ==>>888888o.oo==67..@             ",
"             o.==>>00000000>>00>>.             ",
"             oo==>>00000000>>00>>.o            ",
"             oXXo7677..oo7777>>>>oo            ",
"             XXX.6666.oo.6777>>>>.             ",
"             XX0000o.+  +..0000o.O             ",
"              o0000.      .0000.               ",
"              @..o.@      @..o.@               ",
"                oo          oo                 ",
"                                               ",
"                                               ",
"                                               ",
"                                               ",
"                                               ",
"                                               ",
"                                               ",
"                                               ",
"                                               ",
"                                               ",
"                                               ",
"                                               "
};
