/* XPM */
static char *_73ad12046f048f3de1fa3bd08e4dc34gzr5M0jQBfwTKjDN[] = {
/* columns rows colors chars-per-pixel */
"45 45 84 1 ",
"  c None",
". c #020202",
"X c #0D0202",
"o c #070909",
"O c #0B0B0B",
"+ c #120101",
"@ c #1C0101",
"# c #100E0E",
"$ c #151515",
"% c #1B1B1B",
"& c #240101",
"* c #2C0202",
"= c #290A0A",
"- c #340303",
"; c #3C0000",
": c #232323",
"> c #292929",
", c #353535",
"< c #3B3B3B",
"1 c #440000",
"2 c #4D0000",
"3 c #530101",
"4 c #5A0101",
"5 c #640101",
"6 c #6B0101",
"7 c #750000",
"8 c #7C0000",
"9 c #653D3D",
"0 c #444444",
"q c #4B4B4B",
"w c #565656",
"e c #585858",
"r c #664444",
"t c #626262",
"y c #6A6B6B",
"u c #7C7C7C",
"i c #830000",
"p c #8C0000",
"a c #840D0D",
"s c #950000",
"d c #9A0000",
"f c #A50000",
"g c #AA0000",
"h c #AD0C0C",
"j c #AE1212",
"k c #B01616",
"l c #B01818",
"z c #B52727",
"x c #B72D2D",
"c c #B63D3D",
"v c #B54040",
"b c #BF4646",
"n c #C45252",
"m c #C65B5B",
"M c #C86363",
"N c #CB6868",
"B c #C97474",
"V c #848484",
"C c #8B8B8B",
"Z c #949494",
"A c #9C9C9C",
"S c #A3A3A3",
"D c #B4B4B4",
"F c #BCBCBC",
"G c #D78C8C",
"H c #D89191",
"J c #DD9A9A",
"K c #DEA2A2",
"L c #E2ADAD",
"P c #E3B0B0",
"I c #C3C3C3",
"U c #CACACA",
"Y c #D3D3D3",
"T c gray86",
"R c #EDCCCC",
"E c #EFD4D4",
"W c #F0D6D6",
"Q c #F2DBDB",
"! c gray89",
"~ c #EFEFEF",
"^ c #F7EBEB",
"/ c #F3F3F3",
"( c #FAF5F5",
") c #FEFDFD",
/* pixels */
"                                             ",
"                                             ",
"                                             ",
"                                             ",
"                                             ",
"                                             ",
"                                             ",
"                 ooooooooooo                 ",
"                 &&&&&&&&&&&                 ",
"              ..+8sssssssss5...              ",
"             -;-2sgggggggggi11;=             ",
"            o3cBBmkgggggggggffs-o            ",
"           *4aH))Rxgfgggggggggf73+           ",
"          X-cJE))^PNhgggggggggggs@X          ",
"        o@6iN))))))Lhggggggggggffi5O         ",
"        .@sgnR^))(QGhggggggggggggg7X.        ",
"        .@pghzK))Wnjgggggggggggggg8X.        ",
"        -1sgggMLPGkfggggggggggggggi;*        ",
"      OX6ffggghjjjggggggggggggggggfd4.       ",
"      O+8ggggggggggggggggggggggggggg4.       ",
"      oX7ggggggggggggggggggggfgggggg4.       ",
"      O+7ggggggggggggggggggggggggggf4.       ",
"      o+5fgggggggggggggggggggggggggg4.       ",
"      O.+-sggggggggggggggggggggggggg4.       ",
"      O..+5pfggp8888sgggggggggggggdi1.       ",
"      o...X1fgf1X+++2fgggggggggggg8@..       ",
"      O....@455ryyyt95pgfggggi55561...       ",
"      O.......#S)())CO5ffgfff3........       ",
"        .Oq<..$S))))CO*111111@..oq<o.        ",
"        .$uy%OOS))))Zo.......O$$>utOo        ",
"        .$uAIt#S))))Zo.......tIIFAtO.        ",
"        .$tZ!Z<ZUUUUC<,,,,,,<S)/YVwO         ",
"          $<ZFYt::%:yYTTTTTTT~)FV>$          ",
"          .:eAUVweewA))))))/TYUuwO           ",
"            o0ZY(/(/)))))))YZZC>o            ",
"             ,0tuDIIIIIFIIUZ000>             ",
"              ..$yVVVVVVVVVwo..              ",
"                 >>>>>>>:>>>                 ",
"                 ...........                 ",
"                                             ",
"                                             ",
"                                             ",
"                                             ",
"                                             ",
"                                             "
};
