/* XPM */
static char *ec0695a8124b4ac88cd2d0d976a2c3dfrlfGkpYTYSaSPjhT[] = {
/* columns rows colors chars-per-pixel */
"45 45 112 2 ",
"   c None",
".  c #020202",
"X  c #0B0101",
"o  c #070808",
"O  c #0B0B0B",
"+  c #140101",
"@  c #1B0000",
"#  c #141414",
"$  c gray11",
"%  c #230202",
"&  c #2C0101",
"*  c #2F0808",
"=  c #330000",
"-  c #3C0000",
";  c #242424",
":  c #2B2C2C",
">  c #313131",
",  c #3D3D3D",
"<  c #440000",
"1  c #4A0000",
"2  c #530101",
"3  c #5B0101",
"4  c #650101",
"5  c #760000",
"6  c #7C0000",
"7  c #7C0A0A",
"8  c #512222",
"9  c #653131",
"0  c #434343",
"q  c #4C4C4C",
"w  c #555555",
"e  c gray36",
"r  c #646464",
"t  c #6D6D6D",
"y  c #786C6C",
"u  c #747474",
"i  c #7B7B7B",
"p  c #830000",
"a  c #8C0000",
"s  c #920000",
"d  c #9C0000",
"f  c #920B0B",
"g  c #851A1A",
"h  c #931A1A",
"j  c #A40000",
"k  c #AA0000",
"l  c #AD0D0D",
"z  c #AF1313",
"x  c #B01919",
"c  c #AD2D2D",
"v  c #B82E2E",
"b  c #A23333",
"n  c #B93232",
"m  c #BB3A3A",
"M  c #C04646",
"N  c #C14A4A",
"B  c #C75D5D",
"V  c #CB6A6A",
"C  c #D37F7F",
"Z  c #828282",
"A  c #8D8D8D",
"S  c #949494",
"D  c #9B9B9B",
"F  c gray63",
"G  c #A9A9A9",
"H  c gray71",
"J  c #BCBCBC",
"K  c #D58383",
"L  c #DB8C8C",
"P  c #DA9898",
"I  c #E0A5A5",
"U  c #E1A6A6",
"Y  c #E3B0B0",
"T  c #E6B9B9",
"R  c #EBBFBF",
"E  c #C5C5C5",
"W  c gray79",
"Q  c #CECECE",
"!  c #CBCBCB",
"~  c gray82",
"^  c LightGray",
"/  c #D6D6D6",
"(  c gray87",
")  c #DBDBDB",
"_  c #EAC4C4",
"`  c #EED2D2",
"'  c #EFD2D2",
"]  c #F0D5D5",
"[  c #F2DCDC",
"{  c gray89",
"}  c gray89",
"|  c #EAEAEA",
" . c gray92",
".. c #EEEEEE",
"X. c #EDEDED",
"o. c #F4E0E0",
"O. c #F4E2E2",
"+. c #F6E2E2",
"@. c #F7EBEB",
"#. c #F1F1F1",
"$. c gray96",
"%. c #FAF1F1",
"&. c #FBF7F7",
"*. c #F9F9F9",
"=. c gray98",
"-. c #FCF8F8",
";. c #FDFBFB",
":. c #FDFDFD",
">. c #FEFEFE",
",. c #FEFFFF",
"<. c white",
"1. c #FDFDFD",
/* pixels */
"                                                                                          ",
"                                                                                          ",
"                                                                                          ",
"                                                                                          ",
"                                                                                          ",
"                                                                                          ",
"                                      o . o O                                             ",
"                              o . . * = % + X . . o o #                                   ",
"                          o * = @ X 1 k s 6 4 < = @ X . . o                               ",
"                        + X 3 c b g f k k k k k d a 5 3 < %                               ",
"                    O . 3 7 h I +._ K z k k k k k k k k j 3 . .                           ",
"                o O 1 < h L I o.,.,._ x k k k k k k k k k 3 @ X .                         ",
"                . @ a j m o.,.,.,.,.[ K v k k k k k k k k d a 5 2                         ",
"                . & d k M ` &.,.;.,.,.%.B k k k k k k k k k k k 5 o o                     ",
"            o & & 2 k k l n T ,.,.;.@.] m k k k k k k k k k k k a 1 %                     ",
"            . 3 s d k k k l Y 1.,.] B M z k k k k k k k k k k k k d = .                   ",
"          o X 5 k k k k k k m V P C l k k k k k k k k k k k k k k d 1 %                   ",
"          o + a k k k k k k k k k l k k k k k k k k k k k k k k k k k 4 o                 ",
"          o & d k k k k k k k k k k k k k k k k k k k k j k k k k k k 1 .                 ",
"          . < j k k k k k k k k k k k k k k k k k k k k k k k k k k j = .                 ",
"        O . @ 1 a k k k k k k k k k k k k k k k k k k k k k k k k k d 1 %                 ",
"        o . . + p k k k k k k k k k k k k k k k k k k k k k k k k k k j 4 X               ",
"        o . . X 1 p k k k k k k k k k k k k k k k k k k k k k k k k k k 2 .               ",
"        . . . . . 3 k k k p 6 s d k k k k k k k k k k k k k k k k k k j - .               ",
"        . . . . . - p s s & X @ = 2 5 k k k k k k k k k k k k k k k k s % .               ",
"        o . . o o . + % 8 y w : # o < k k k k k k k k k k k k j k k k p X .               ",
"          . # e 0 o . . w | #.( J S 9 6 j k k k k k k k k k k k k k k 4 . .               ",
"          . : A r o . o i =.,.,.,.| q @ a k k k k k k k k k k k k d d 1 .                 ",
"          . 0 A F Z ; O G ,.,.,.,.^ : + 5 d j k k k k p 5 a d k k < % + .                 ",
"          O 0 i ^ } 9 $ Q ,.,.,.,.H # . + & < 3 6 a d < X @ & 1 3 @ . . .                 ",
"            O : S H i r W X.;.,.,.A o . . . . . + % & + . . . o . . . . .                 ",
"            . ; t G $.S : q u F J t o . . . . . . . . o . . ; w ; . . .                   ",
"                $ u W A > # o o > F F u q : # o . . , S t 0 e A , . o                     ",
"                o w S / { E S t r { ,.=.#./ H A r , S ,.$.| G Z : .                       ",
"                  ; 0 A W X.=.=.#.,.,.,.,.,.,.,.&.} X.=./ W A t $ .                       ",
"                  . . O 0 F H E / | $.;.,.,.,.&./ ( X.( D u $ ;                           ",
"                      o , u Z A S D G J Q ( | { D S F Z 0 , o                             ",
"                        O $ ; , w t i Z A D F Z 0 w t 0 .                                 ",
"                        . . . . . o $ : 0 e u , o . O ;                                   ",
"                                . . . . . o # $   o o                                     ",
"                                          . .                                             ",
"                                                                                          ",
"                                                                                          ",
"                                                                                          ",
"                                                                                          "
};
