/* XPM */
static char *wall_r1681220794[] = {
/* columns rows colors chars-per-pixel */
"64 64 49 1 ",
"  c None",
". c #C5C5C5",
"X c gray79",
"o c gray80",
"O c #CDCDCD",
"+ c gray81",
"@ c #D0D0D0",
"# c gray82",
"$ c #D2D2D2",
"% c LightGray",
"& c #D5D5D5",
"* c gray84",
"= c #D7D7D7",
"- c gray85",
"; c #DADADA",
": c gray86",
"> c gray87",
", c gray88",
"< c #E1E1E1",
"1 c #E2E2E2",
"2 c gray89",
"3 c #E4E4E4",
"4 c gray90",
"5 c #E6E6E6",
"6 c #E7E7E7",
"7 c gray91",
"8 c #E9E9E9",
"9 c #EAEAEA",
"0 c gray92",
"q c #ECECEC",
"w c gray93",
"e c #EEEEEE",
"r c #EFEFEF",
"t c gray94",
"y c #F1F1F1",
"u c gray95",
"i c #F3F3F3",
"p c #F4F4F4",
"a c gray96",
"s c #F6F6F6",
"d c gray97",
"f c #F8F8F8",
"g c #F9F9F9",
"h c gray98",
"j c #FBFBFB",
"k c gray99",
"l c #FDFDFD",
"z c #FEFEFE",
"x c white",
/* pixels */
"                                                                ",
"                                                                ",
"                                           **%*******%***%*     ",
"                                          2hhhhahhahhhhhhhh4    ",
"                                          4llllllllllllllll0    ",
"                                          4llllllllllllllll0    ",
"                                          4llllllllllllllllw    ",
"                                          0llllllllllllllllw    ",
"                                          4llllllllllllllllw    ",
"                                         .wllllllllllllllllw    ",
"    yayyaaay           >00ww00wwww00wwww0ylllllllllllllllllw    ",
"    ahhlllla           wlllllllllllllllllllllllllllllllllllw    ",
"    yhllllla           wlllllllllllllllllllllllllllllllllllw    ",
"    ahhhllla           wlllllllllllllllllllllllllllllllllllw    ",
"    alahhlla           wlllllllllllllllllllllllllllllllllllw    ",
"    hhhhhlha           wlllllllllllllllllllllllllllllllllllw    ",
"                       wlllllllllllllllllllllllllllllllllllw    ",
"                       wlllllllllllllllllllllllllllllllllllw    ",
"                       wlllllllllllllllllllllllllllllllllllw    ",
"                       wlllllllllllllllllllllllllllllllllllw    ",
"                       wlllllllllllllllllllllllllllllllllllw    ",
"                       0lllllllllllllllllllllllllllllllllllw    ",
"                       wlllllllllllllllllllllllllllllllllllw    ",
"                       2yyayyayyyyyayyayahlllllllllllllllllw    ",
"                                         %wllllllllllllllll0    ",
"                                          4lhhhlllllhlllllh0    ",
"                                          2hhhlllllllllhlhh4    ",
"                                          2hllllllllllllhhh0    ",
"                                          2hhhlhllhhhlllhhh4    ",
"                                          4lhhhhlllhahlllll4    ",
"                                          4hhhhhhhhhlhhhlll0    ",
"                                          +::::::::0hhahlll0    ",
"                                 **:::*:+          +ylhhhhl0    ",
"    alllhhllhhllhlhlh0          %yhhaaah2           whllhhh0    ",
"    allllllllllllllllw          %allhhhh2           alllhal0    ",
"    allllllllllllllll0          %alllhhh2           ylllhhh0    ",
"    allllllllllllllllw          +ahlllhh>           yhlllll4    ",
"    hllllllllllllllllw          %alllhhh2           yllllhh4    ",
"    allllllllllllllllw          +allhhhl4          Xylllhhl0    ",
"    hllllllllllllllllw          %hlllhhlw+         *hlllhhl0    ",
"    allllllllllllllllw          %alllllllaywyywywywhlllllllw    ",
"    allllllllllllllllw          %hlllllllllllllllllllllllllw    ",
"    hllllllllllllllllw          %hlhlllllllllllllllllllllllw    ",
"    allllllllllllllllw          %hlllllllllllllllllllllllllw    ",
"    allllllllllllllll0          %hlhlllllllllllllllllllllllw    ",
"    allllhlllllhllllh0          %alllllllllllllllllllllllllw    ",
"     4404004404040044           %hlllllllllllllllllllllllllw    ",
"                                %hlhlllllllllllllllllllllllw    ",
"                                %hlllllllllllllllllllllllllw    ",
"                                %hlllllllllllllllllllllllllw    ",
"                                %hlllllllllllllllllllllllllw    ",
"                                %alllllllllllllllllllllllllw    ",
"                                %hlllllllllllllllllllllllllw    ",
"                                +0w0wwywyalllllllllllllllllw    ",
"                                         +yllllllllllllllllw    ",
"                                          0llllllllllllllllw    ",
"                                          0llllllllllllllllw    ",
"                                          4llllllllllllllll0    ",
"                                          4llllllllllllllllw    ",
"                                          4llllllllllllllllw    ",
"                                          2hhhlhlhhhhlhhlhh0    ",
"                                          +:>:::>::>:::::::%    ",
"                                                                ",
"                                                                "
};
