/* XPM */
static char *wall_dr1681220794[] = {
/* columns rows colors chars-per-pixel */
"64 64 13 1 ",
"  c None",
". c #F4F4F4",
"X c gray96",
"o c #F6F6F6",
"O c gray97",
"+ c #F8F8F8",
"@ c #F9F9F9",
"# c gray98",
"$ c #FBFBFB",
"% c gray99",
"& c #FDFDFD",
"* c #FEFEFE",
"= c white",
/* pixels */
"                                                                ",
"                                                                ",
"                                                                ",
"                                                                ",
"                                                                ",
"                                                    $%%$$O      ",
"                                                    $%%%$.      ",
"                                                    $%%%$O      ",
"                                                    %%$$$O      ",
"                                                    %$$O$O      ",
"                                                    $$$$$O      ",
"                                                    $$$$$O      ",
"                      $%$O$%%%$$$$O          %$$%%$$$$$%%O      ",
"                     $%%$O%%%%$O%$$         %$$$%%$$$$$$%O      ",
"                     $%%$$%%$$O$%%%         %$$$$%$$$%%%$O      ",
"                     O$$$$$$$$$$%%$         $$$$%$$$%%%O$O      ",
"                     O$%$$$OO$$$%$$         $$%%%%%%%%%$$O      ",
"                     O%%$$$$$$$$%$$         $$%%%%%%%%%%$O      ",
"                     $%%$O%%%%$$%%$         $$$%%%%%%%%%$O      ",
"                     $%%$$%%%%$%%%%         $$$%%%%%%%%%$.      ",
"      O$%$OO         O$%$$$%%%%%%%%         $$$%%%%%%%%%$O      ",
"      O%%%$$         O%%%$$O%%%%%%%         O$$%%%%%%%$$$O      ",
"      O%$%$$         O$%%$$%%%%%%%%         $$%$%%%%%%%%$O      ",
"      $%$$$$         $%%$$%%%%%%%%%         $$$$%%%$%%%%$.      ",
"      $$$$O$         $%%$O$%%%%%%%%         %%$$$%$$$$%%$.      ",
"      O$%$$$         O$$$$$%%%%%%%%         %%%%%$$$$$$%$O      ",
"                            O%%%%%%                $$O$$%$      ",
"                             %%%%%%                 $$$$$O      ",
"                             %%%%%%                 %%%O$O      ",
"                             %%%%%%                 %%%$$$      ",
"                             %%%%%%                 %%%$$O      ",
"                             %%%%%%                 $%%$$.      ",
"                             %%%%%%                 %%%$$O      ",
"                             %%%$%$                 %%%$$O      ",
"                                                    %%%%$O      ",
"              %%%%%%%%%%%%%          %%%%%%%%%%%%%%%%%%%%$      ",
"              %%%%%%%%%%%%%          %%%%%%%%%%%%%%%%%%%%O      ",
"              %%%%%%%%%%%%%          %%%%%%%%%%%%%%%%%%%%$      ",
"              %%%%%%%%%%%%%          %%%%%%%%%%%%%%%%%%%%$      ",
"              %%%%%%%%%%%%%          %%%%%%%%%%%%%%%%%%%%$      ",
"              %%%%%%%%%%%%%          %%%%%%%%%%%%%%%%%%%%$      ",
"              %%%%%%%%%%%%%          %%%%%%%%%%%%%%%%%%%%O      ",
"              %%%%%%%%%%%%%          %%%%%%%%%%%%%%%%%%%%$      ",
"              %%%%%%%%%%%%%          %%%%%%%%%%%%%%%%%%%%$      ",
"              %%%%%%%%%%%%%          %%%%%%%%%%%%%%%%%%%%O      ",
"              %%%%%%%%%%%%%          %%%%%%%%%%%%%%%%%%%%$      ",
"              %%%%%%%%%%%%%          %%%%%%%%%%%%%%%%%%%%$      ",
"              %%%%%%%%%%%%%          %%%%%%%%%%%%%%%%%%%%$      ",
"              %%%%%%%%%%%%%          %%%%%%%%%%%%%%%%%%%%$      ",
"              %%%%%%%%%%%%%         %%%%%%%%%%%%%%              ",
"             %%%%%%%%%%%%%%%%      %%%%%%%%%%%$%%%              ",
"      $%%%$$%%%%%%%%%%%%%%%%%%%%%%%%%%%%%%%%$$%%%%              ",
"      $$%$$$$%%%%%%%%%%%%%%%%%%%%%%%%%%%%%%%O$$%%%              ",
"      %%%$$$%%%%%%%%%%%%%%%%%%%%%%%%%%%%%%%%$$$%%%              ",
"      %%%$$%%%%%%%%%%%%%%%%%%%%%%%%%%%%%%%%%$$$%%%              ",
"      %%%$%%%%%%%%%%%%%%%%%%%%%%%%%%%%%%%%%%%$O%%%              ",
"                                                                ",
"                                                                ",
"                                                                ",
"                                                                ",
"                                                                ",
"                                                                ",
"                                                                ",
"                                                                "
};
