/* XPM */
static char *wall_d1681220794[] = {
/* columns rows colors chars-per-pixel */
"64 64 58 1 ",
"  c None",
". c gray73",
"X c gray",
"o c gray75",
"O c gray77",
"+ c #C6C6C6",
"@ c gray78",
"# c #C8C8C8",
"$ c gray79",
"% c #CACACA",
"& c #CBCBCB",
"* c #CECECE",
"= c #D0D0D0",
"- c gray82",
"; c #D2D2D2",
": c LightGray",
"> c gray83",
", c #D5D5D5",
"< c gray84",
"1 c #D7D7D7",
"2 c #D8D8D8",
"3 c gray85",
"4 c #DADADA",
"5 c gray86",
"6 c gainsboro",
"7 c #DDDDDD",
"8 c gray87",
"9 c #DFDFDF",
"0 c gray88",
"q c #E1E1E1",
"w c #E2E2E2",
"e c gray89",
"r c #E4E4E4",
"t c gray90",
"y c #E6E6E6",
"u c #E7E7E7",
"i c gray91",
"p c #E9E9E9",
"a c #EAEAEA",
"s c gray92",
"d c #ECECEC",
"f c gray93",
"g c #EFEFEF",
"h c gray94",
"j c #F1F1F1",
"k c gray95",
"l c #F3F3F3",
"z c gray96",
"x c #F6F6F6",
"c c gray97",
"v c #F8F8F8",
"b c #F9F9F9",
"n c gray98",
"m c #FBFBFB",
"M c gray99",
"N c #FDFDFD",
"B c #FEFEFE",
"V c white",
/* pixels */
"                                                                ",
"                                                                ",
"                         ;<;;<;<<<<;;;                          ",
"                        <mmmmVVmVmmmmm;                         ",
"                        4mmVVmVVVVVVVm;                         ",
"                        <mVmVVVVVVmmVc<                         ",
"                        <mmVVVVVVVmVVc;                         ",
"                        4mVmmVVVVmVVmm<                         ",
"                        <mVmVVVVVVVmmm;                         ",
"                        <mmVVmVVVVVmVc;                         ",
"                        4mVmmVVVVmVmmm<                         ",
"                        <mmmVVVVVVVVVm;                         ",
"                        <mmVVVVVVVVmVc;                         ",
"   %%%%%%%%%%%%         4mVmVmVVVVVmmm<         %%%%%%%%%%%%    ",
"  4kgkggkkggkkki        <mmVVVVVVmVVVc;        ikgkkgkggkkgg4   ",
"  qVVVVVVVVVVVVk        <mVmVmVVVVVmmm<        cVVVVVVVVVVVV9   ",
"  qVVVmVmVVVVVVk        <mVmVVVVVmVmmm<        kVVVVVVmVmVVm9   ",
"  qVVVVVVVVmVmVk        <mmVVVVVVVVVVm;        cVmVmVVVVVVVm9   ",
"  qVVmmmmVVmmmVk        4mVmmVVVVVVmmm;        cVVmVmmmVmmVmq   ",
"  qVVVVVVmVVVVVk        <mmVVVVVVVVmVc<        cmmVVVVVmVVVm9   ",
"  9VVmVVVVmVVVVc        <mVmVVVVVmVmVc;        cVVVVmVVVVmVVq   ",
"  9VVVVVVVVVVVVk        <mmVVVVVVVVVmm<        cVVVVVVVVVVVmq   ",
"  qVVVVmVVVVmmVk        <mmmmmVmmVmmmc;        cVVVVVVVVVVVVq   ",
"  9VmmVVcq;<<;;;         <<<<<4<<<<<<<         cVVVVVVVVVVVVq   ",
"  qmmmVVyX                                     cVVVVVVVVVVVV9   ",
"  qmcmmVq        <qqq99%                       cVVVVVVVVVVVmq   ",
"  qmmmVmq        iVVVmV4                       cVVVVVVVVVVVVq   ",
"  9mmmmmq        yVVmVm<                       cVVVVVVVVVVVmq   ",
"  9mmVVmq        yVVmVm4                       cVVVmVVmVmVVmq   ",
"  9cmmVmy        iVVVmV<                       cmVVVVVVVVVVmq   ",
"  qmmVVmq        iVVmVm4                       cVmmVmmmVmVVmq   ",
"  qVcmmVy        iVVVmm4                       kVVmVVVVmVVVV9   ",
"  qmcmVmq        iVVmVm4                       cVVmVVVVVVVVm9   ",
"  ymcmmmq        iVVVVm4                       cVVVVVVVmVmVVq   ",
"  ymmmmc9        iVmmVV<                       qiiyyiiiiyiiy<   ",
"  qmmcmmy.      OgVVVmm4                                        ",
"  yVmmmmk<@%@%@%4cVVmVm<        @@%@%@%@%%@%@@                  ",
"  qmVmcmmmcccccmmVVVVmm4        immcmmcmccmcmq                  ",
"  qmmmmmmmmVmmmVVVVVmVm4        kVVVVVVVVVVVVq                  ",
"  4mVmmmcmVmmcmmVmVVVVm4        gVVmVmVVVmVVVy                  ",
"  4cVmVmcmmmmcmmmVVVmmm4        gVVVVVVVVVVmVy                  ",
"  9mmmVmmVmVmmmmmVVVmVm4        gVmmmVmmmVmVVq                  ",
"  qmcmmVmmVmVmmmmmVVVmm4        gVVVVmVVmVVVVy                  ",
"  qmcmmVVmmmmVmcmmVVmVm4        gVVVVVVVVVVVVy                  ",
"  9mmmVmVmVmmmmmmVVVVmm4        gVVVVVVVVVVVVy                  ",
"  9mmVVmmmVVmmmmVmVVmVm4        gVVVVVVVVVVVVq                  ",
"  9mVmmVmVVVVmmmVVVVVmV4       @kVVVVVVVVVVVVy                  ",
"  9mVVVmVmVVmmmVVVVVmVVi@     X;mVVVVVVVVVVVVk%                 ",
"  qVmVVVmVVVmVVVVVVmVVVcgigiiigcVVVVVVVVVVVVVVkiiigiiigigiii<   ",
"  qVVVVVVVVVVVVVVVVVVVVVVVVVVVVVVVVVVVVVVVVVVVVVVVVVVVVVVVVmq   ",
"  qVVVVVVVVVVVVVVVVVVVVVVVVVVVVVVVVVVVVVVVVVVVVVVVVVVVVVVVVVq   ",
"  9VVVVVVVmVVVVmVVmVVmVVVVVVVVmVVVmVVVmVVVmVVVmVVVVVVVmVVVVmq   ",
"  9VVmmmVmmVmmmVVmVVVmmmmVmVmVmVmmmVVmVVmmVmVmVVmVmVmVmVmVVVq   ",
"  qVVVVVVVVmVVVVmVVmVVVVmVVVmVVVVVVVmVVmVVVVmVVmmVVVmVVVVmVmq   ",
"  qVVVVVmVVVVVmVVVVmVmVVVmVmVmVmVVmVVVVmVmVmVVVmVmVmVmVmVVVmq   ",
"  qVVmVmVVVmVmVVmVVVVVmVVVVVVVVVVmVVmVVVVVVVmVVVVVVVVVVVVmVmq   ",
"  9VVmVVmVVVVVVVVVVVVVVVVmVVVmVVmVVVVVVVVVVVVVVVVmVVVmVVVVVm9   ",
"  *999999999499499499499999999999999499499499499999999999499*   ",
"                                                                ",
"                                                                ",
"                                                                ",
"                                                                ",
"                                                                ",
"                                                                "
};
