/* XPM */
static char *wall_l1681220793[] = {
/* columns rows colors chars-per-pixel */
"64 64 63 1 ",
"  c None",
". c #A0A0A0",
"X c gray66",
"o c #AEAEAE",
"O c #B9B9B9",
"+ c gray73",
"@ c gray74",
"# c gray",
"$ c #C0C0C0",
"% c gray76",
"& c #C3C3C3",
"* c gray77",
"= c #C5C5C5",
"- c #C6C6C6",
"; c gray78",
": c #C8C8C8",
"> c gray79",
", c #CACACA",
"< c #CBCBCB",
"1 c #CDCDCD",
"2 c #CECECE",
"3 c gray81",
"4 c #D0D0D0",
"5 c gray82",
"6 c #D2D2D2",
"7 c LightGray",
"8 c gray83",
"9 c gray84",
"0 c #D7D7D7",
"q c #D8D8D8",
"w c gray85",
"e c #DADADA",
"r c gray86",
"t c gainsboro",
"y c #DDDDDD",
"u c gray87",
"i c #DFDFDF",
"p c #E1E1E1",
"a c #E2E2E2",
"s c gray89",
"d c #E6E6E6",
"f c #E7E7E7",
"g c gray91",
"h c #E9E9E9",
"j c #ECECEC",
"k c #EEEEEE",
"l c #EFEFEF",
"z c gray94",
"x c #F1F1F1",
"c c gray95",
"v c #F3F3F3",
"b c #F4F4F4",
"n c gray96",
"m c #F6F6F6",
"M c gray97",
"N c #F8F8F8",
"B c #F9F9F9",
"V c gray98",
"C c #FBFBFB",
"Z c gray99",
"A c #FDFDFD",
"S c #FEFEFE",
"D c white",
/* pixels */
"                                                                ",
"                                                                ",
"    ;55555855585588555855585588555858581                        ",
"    fDDCDCDCDDCDCCDCDCDCDDCDCCDCDCDCDCDm<                       ",
"    gDDDCDDDDDDCDDDDCDDDDDDCDDDCDDDDDDCm;                       ",
"    fDCDDDCCCDCDCDCCDDCCDCDCDCDCCDCCCDDm<                       ",
"    gDDDDCDDCDDDDCDDDCDDDCDDDCDDDDDDDDDm<                       ",
"    gDDDDDDDDDDDDDDDDDDDDDDDDDDDDDDDDDDm<                       ",
"    gDDDDDDDDDDDDDDDDDDDDDDDDDDDDDDDDDDC;                       ",
"    gDDDDDDDDDDDDDDDDDDDDDDDDDDDDDDDDDDm<                       ",
"    gDDDDDDDDDDDDDDDDDDDDDDDDDDDDDDDDDDm<                       ",
"    gDDDDDDDDDDDDDDDDDDCDCDDDCDDDDDCDDDm<                       ",
"    gDDDDDDDDDDDDDDDCDDDDDCDDDCDCDDDCDDm;                       ",
"    gDDDDDDDDDDDDDDDDDCDCDDCDCDCDCDCCDDm<                       ",
"    gDDDDDDDDDDDDDDDDDDDDDDDDDDDDDDDDDDC;                       ",
"    gDDDDDDDDDDDDDDDCCxkkkkkxkkxkkkkkkkg&                       ",
"    gDDDDDDDDDDDDDDDDf&                                         ",
"    gDDDDDDDDDDDDDDDD5                   ;ggkgkgkgkkkgkgkki     ",
"    gDDDDDDDDDDDDDDDD8                   1CDDDDDDDDDDCCDDDk@    ",
"    gDDDDDDDDDDDDDDDC5                   1CDCDCCCCDCDCDDCDk@    ",
"    gDDDDDDDDDDDDDDDC5                   1CDDDCDDDDCDDDCDDx@    ",
"    gDDDDDDDDDDDDDDDD5                   1CDDCDDCDDDCDDDDDk@    ",
"    gDDDDDDDDDDDDDDDD5                   1CDDDDDDDDDDDDDDDk@    ",
"    gDDDDDDDDDDDDDDDC8                   5CDDDDDDDDDDDDDDDx@    ",
"    gDDDDDDDDDDDDDDDC5          <irir8rrpxDDDDDDDDDDDDDDDDk@    ",
"    gDDDDDDDDDDDDDDDD5          rCDCCCCCCDDDDDDDDDDDDDDDDDx@    ",
"    gDDDDDDDDDDDDDDDD1          rCCDDCCmmCDDDDCDDCDDDCDDDDk@    ",
"    gDDDDDDDDDDDDDDDD5          iCDCCCCCCDCCDDDDDDCDDDCDDCk@    ",
"    gDDDDDDDDDDDDDDDD5          rDDDCmCDCDDDCDDDDDDDDCDDDDk@    ",
"    gDDDDDDDDDDDDDDDD5          rCCCCmCCDDCDDDCCCCDCDCCDCDk@    ",
"    gDDDDDDDDDDDDDDDC8          rCCDCmCCkpiiriiiiiriiiiiii8     ",
"    gDDDDDDDDDDDDDDDDk811<<<<<<8kCmCCCDC1                       ",
"    gDDDDDDDDDDDDDDDDCCCmmmCCmmCCCCmCCDm;                       ",
"    gDDDDDDDDDDDDDDDDDDDCCCCCCDCCCCCDDCx&                       ",
"    gDDDDDDDDDDDDDDDDCCCCCCCDCDCmCDDCCCx;                       ",
"    gDDDDDDDDDDDDDDDDDCmCCCDDCCCDCDCCmCm;                       ",
"    gDDDDDDDDDDDDDDDDCCCCCCDCDCCCDCDCCCx;                       ",
"    gDDDDDDDDDDDDDDDCDDDCmCDDCDDDCDCDCDx&                       ",
"    gDDDDDDDDDDDDDDDDDDDCmmDDDDDCCCDDCCmr&                      ",
"    fDDDDDDDDDDDDDDDDDCDCCCCDDCDCDDCCCCCmmmxmxxxx8              ",
"    gDDDDDDDDDDDDDDDCDCmCCCDCDCCDCDCCmCCCDDDDDCDDi              ",
"    gDDDDDDDDDDDDDDDDCCmCCDCCCCCCDDCCCCCDCDDDCDCDr              ",
"    gDDDDDDDDDDDDDDDDDDCCCCCCDCCmCCDCCCCmCDDCDDCCr              ",
"    gDDDDDDDDDDDDDDDDDDDCmCDCDDCCCCCDCCmCCDDDDCDDr              ",
"    gDDDDDDDDDDDDDDDCDmxxxxxxxxmCCmCCDCDDDCDDCDCCr              ",
"    gDDDDDDDDDDDDDDDDf;OOOOOOOO<gCCCCCCDDDDDDDCDDr              ",
"    gDDDDDDDDDDDDDDDD5         .8CCCCCCDDDDDDCDCDr              ",
"    gDDDDDDDDDDDDDDDD1          8DDCmmCCDDDDCDCDDr              ",
"    gDDDDDDDDDDDDDDDC1          rDDCCmCCDDCDDDCDDr              ",
"    gDDDDDDDDDDDDDDDD1          8CCDDCCCCCDDDCDCCr              ",
"    gDDDDDDDDDDDDDDDD1          8DCDCCCmmDDDCDCDDr              ",
"    gDDDDDDDDDDDDDDDD1          8CCDCCCCCCCCCCCCmr              ",
"    gDDDDDDDDDDDDDDDDrX        opDDDCCCCg85555555@              ",
"    gDDDDDDDDDDDDDDDDxi55555855imDDCCDCC<                       ",
"    gDDDDDDDDDDDDDDDDDDCDDDCDDDDDDDDDDDm<                       ",
"    gDDDDDCDDDDDDCDDDCDDDDDDDDDDDCDDDDDm<                       ",
"    fDDCDCDDDDDCDDCDCDCDDDDDCDCDDDDDDDDm;                       ",
"    fCDDDDDDCDDDDDDDDDDDDCDCDDDDDCDDDCDm<                       ",
"    fDDDDDDDDDDCDDDDCDDDCDDDDDDDDDDDDDDm<                       ",
"    8pfppppppfpppppfpppfppfppppfpppppppi                        ",
"                                                                ",
"                                                                ",
"                                                                ",
"                                                                "
};
