/* XPM */
static char *_fb2d3837d5a48b986d3c7ea680c3c49XjG6ci4PgbsG3NLq[] = {
/* columns rows colors chars-per-pixel */
"68 64 205 2 ",
"   c None",
".  c black",
"X  c #010001",
"o  c #010101",
"O  c #010201",
"+  c #020102",
"@  c #020202",
"#  c gray1",
"$  c #030403",
"%  c #040404",
"&  c gray2",
"*  c #050605",
"=  c #050606",
"-  c #060606",
";  c #070707",
":  c gray3",
">  c #080908",
",  c #090909",
"<  c gray4",
"1  c #0A0B0A",
"2  c #0A0B0B",
"3  c #0B0B0B",
"4  c #0B0C0B",
"5  c #0B0B0C",
"6  c #0B0C0C",
"7  c #0C0C0C",
"8  c #0C0D0C",
"9  c gray5",
"0  c #0D0E0D",
"q  c #0D0E0E",
"w  c #0E0E0E",
"e  c #0E0F0F",
"r  c gray6",
"t  c #0F100F",
"y  c #0F0F10",
"u  c #0E1010",
"i  c #0F1010",
"p  c #101010",
"a  c #101110",
"s  c #101111",
"d  c #111111",
"f  c gray7",
"g  c #121312",
"h  c #121213",
"j  c #121313",
"k  c #131313",
"l  c #141313",
"z  c #131413",
"x  c #131314",
"c  c #131414",
"v  c gray8",
"b  c #141515",
"n  c #151515",
"m  c #151615",
"M  c #161616",
"N  c #161716",
"B  c #161617",
"V  c #161717",
"C  c gray9",
"Z  c #171817",
"A  c #171818",
"S  c #181818",
"D  c #181919",
"F  c #191919",
"G  c #191A19",
"H  c #191A1A",
"J  c gray10",
"K  c #1B1B1B",
"L  c #1B1C1B",
"P  c #1B1C1C",
"I  c gray11",
"U  c #1C1D1C",
"Y  c #1C1C1D",
"T  c #1C1D1D",
"R  c #1D1D1D",
"E  c #1D1E1D",
"W  c #1D1D1E",
"Q  c #1D1E1E",
"!  c #1E1E1E",
"~  c #1E1F1E",
"^  c #1E1E1F",
"/  c #1E1F1F",
"(  c gray12",
")  c #201F1F",
"_  c #1F201F",
"`  c #1F1F20",
"'  c #1F2020",
"]  c #202020",
"[  c #202120",
"{  c gray13",
"}  c #212221",
"|  c #212222",
" . c #222222",
".. c #222322",
"X. c #232323",
"o. c #232423",
"O. c #232424",
"+. c gray14",
"@. c #252524",
"#. c #252525",
"$. c #252625",
"%. c #262625",
"&. c gray15",
"*. c #272726",
"=. c #262727",
"-. c #272727",
";. c #25262D",
":. c #282828",
">. c #282928",
",. c #282929",
"<. c gray16",
"1. c #292A29",
"2. c #2A2A2A",
"3. c #2A2B2B",
"4. c gray17",
"5. c #2B2C2B",
"6. c #2B2D2B",
"7. c #2B2C2C",
"8. c #2C2C2C",
"9. c #2D2D2D",
"0. c #2E2E2D",
"q. c #2D2D2E",
"w. c #2D2E2E",
"e. c gray18",
"r. c #2E2E2F",
"t. c #2E2F2F",
"y. c #2F2F2F",
"u. c gray19",
"i. c #313131",
"p. c #323232",
"a. c gray20",
"s. c #343434",
"d. c #353535",
"f. c gray21",
"g. c #373737",
"h. c gray22",
"j. c #3A3A3A",
"k. c #3A3B3A",
"l. c gray23",
"z. c #3C3C3C",
"x. c gray24",
"c. c #3E3E3E",
"v. c #3F3F3F",
"b. c gray25",
"n. c #414141",
"m. c gray26",
"M. c #424343",
"N. c #434343",
"B. c #444544",
"V. c gray27",
"C. c #464646",
"Z. c gray28",
"A. c #484848",
"S. c gray29",
"D. c #4B4B4B",
"F. c #4D4D4E",
"G. c #505050",
"H. c #515151",
"J. c gray32",
"K. c #535353",
"L. c #565656",
"P. c gray34",
"I. c gray35",
"U. c #5A5A5A",
"Y. c #626363",
"T. c gray39",
"R. c #636463",
"E. c #646464",
"W. c gray40",
"Q. c #686868",
"!. c DimGray",
"~. c #696A69",
"^. c #6A6B6A",
"/. c #6B6A6B",
"(. c gray42",
"). c #6B6C6B",
"_. c #6B6D6B",
"`. c #6C6C6C",
"'. c #6C6D6C",
"]. c #6C6D6D",
"[. c #6D6E6C",
"{. c #6E706E",
"}. c #6F706F",
"|. c gray44",
" X c #717171",
".X c #727272",
"XX c gray45",
"oX c #737473",
"OX c #747474",
"+X c gray46",
"@X c #757675",
"#X c #767676",
"$X c #777777",
"%X c gray47",
"&X c #797979",
"*X c #797A79",
"=X c gray48",
"-X c #7B7B7B",
";X c #7C7C7C",
":X c gray49",
">X c #7C7C7E",
",X c #7E7E7E",
"<X c gray50",
"1X c #838383",
"2X c gray53",
/* pixels */
"                                                                                                                                        ",
"                                                                                                                                        ",
"                                                                                                                                        ",
"                                                  |.#X#X#X|.#XOX#X|.#X;X+.# C.;X|.#X|.                                                  ",
"                                                  #X$XOX%X-X-X;X;X%X;X;XC # b.1X%X%X#X                                                  ",
"                                          |.#X#X|.#XOXb.s.x.x.x.x.g.f f X.+.i.l.l.l.l.g.g.                                              ",
"                                        #X#X#X#X#X;X<Xx.3.3.e.e.e.+.# # X.i.e.e.e.e.e.e.i.                                              ",
"                                      |.#X#X`.I.K.G.D.s.e.e.e.+.C J J J 4.i.e.e.e.e.e.e.e.l.l.                                          ",
"                                    #X#X#X#XW.A.b.+.4.e.e.e.e.! # # 4.e.e.i.e.i.e.i.e.i.e.3.e.                                          ",
"                                    #X#X`.W.K.x.l.e.e.e.e.e.e.X.r f 4.e.e.e.e.i.e.i.e.e.e.e.e.                                          ",
"                                    #X;XI.C.x.e.e.e.e.e.e.4.e.e.e.4.e.e.e.e.4.e.e.e.i.i.e.e.e.                                          ",
"                                    |.|.K.A.x.e.e.e.e.e.e.e.4.e.e.e.e.e.e.e.e.e.e.e.e.e.e.e.e.l.                                        ",
"                                r , & # i.A.x.e.e.e.e.e.e.e.e.e.e.e.e.e.e.e.e.e.e.e.e.e.e.4.e.e.i.i.                                    ",
"                                & # # # e.F.x.e.e.e.e.e.e.e.e.e.e.e.e.e.e.e.e.e.e.4.e.e.e.e.e.e.e.i.                                    ",
"                            %XI.# # i.i.s.g.i.e.e.e.e.4.e.e.e.e.e.e.e.e.4.e.e.e.e.e.e.e.e.4.e.e.e.e.e.e.                                ",
"                            2X_.# # b.H.g.e.e.e.e.e.e.e.e.e.e.i.i.e.e.e.e.e.e.e.e.e.e.i.e.e.e.e.e.e.e.e.                                ",
"                            x.g.X.+.g.x.+.J J C C C J +.e.e.e.+.J J e.e.e.e.X.C J C J J K +.e.8.e.e.+.4.                                ",
"                            # # H.H.i.e.f # # # # # # X.e.e.i.! # # 4.e.e.e.f # # # # # # ` e.e.e.4.! !                                 ",
"                            f J l.g.4.e.f # # , , # & +.e.e.e.! # & 4.e.e.e.C # # , , # # ` e.e.e.4.! X.                                ",
"                            A.x.# # +.e.f # r g.4.& & +.i.e.e.! # & 4.e.e.e.f # r g.8.% # X.e.e.e.+.! ! C x                             ",
"                            C.l.# # +.e.f # f e.+.& & +.t.e.e.! # & 4.e.e.e.C # r e.+.& # ! e.3.e.+.! ! f r                             ",
"                            C.b.+.+.e.e.f # f e.+.& & +.t.e.t.! # & 4.i.e.e.C # r e.+., # X.e.e.e.4.! ! f r                             ",
"                            C.b.e.e.e.e.f # f g.e.& & +.u.e.e.P # , 4.e.e.e.C # r g.i.& # ! e.e.e.4.! J f r                             ",
"                            A.b.e.e.e.e.f # & f r # & +.e.e.e.! # & 4.e.e.e.f # & f f # # X.e.4.+.X.! ! f r                             ",
"                            C.b.e.e.e.e.f # # # # # # X.e.e.e.! # & 4.e.e.e.c # # # # # # ! e.+.! ! ! J f f                             ",
"                          A.A.b.e.e.e.e.f # # # # r f +.e.e.e.! # & 4.e.e.e.C # & r r r f X.4.+.! J J C r f                             ",
"                      C.A.C.C.b.e.e.e.e.f # # # , i.e.e.e.e.e.! # & 4.e.e.e.f # r g.e.e.e.X.! ! X.J r r r r & & f                       ",
"                      C.A.C.b.x.e.e.e.e.f # # , r X.4.4.e.e.e.! # & 4.e.e.e.f # r e.e.e.e.X.! ` ! C r r r r # #                         ",
"                      C.A.x.e.e.e.e.e.e.f # f i.X.# # X.e.e.e.! # , 4.e.e.e.C # r e.e.4.e.X.! ! ! J r r # # # #                         ",
"                      C.C.x.e.e.4.e.e.e.f # f e.+.# # X.4.4.e.! # & :.e.e.e.f # r e.e.e.e.X.! ! ! J r r # # # #                         ",
"                      C.C.l.e.e.e.e.e.e.f # f e.4.X.X.f # ! e.! # & 4.e.e.e.C # r e.e.+.X.! ! J f f r r # # # #                         ",
"                      C.A.x.e.e.e.e.e.e.f # f e.e.e.4.# # J i.! # # 4.e.e.e.f # f e.4.! ! ! ! C r r f , # # # #                         ",
"                      g.i.i.e.e.e.e.e.e.` C ` e.8.e.8.I S +.y.+.C J 4.e.e.e.X.C ! +.+.X.! C C f i r f r # # # #                         ",
"                      +.! X.4.4.e.e.e.e.e.e.e.e.e.e.e.e.e.e.e.e.e.e.e.e.e.e.e.e.4.! ! ! ! f r f i f r r # # # #                         ",
"                      +.! +.4.e.e.e.e.e.e.e.e.e.e.e.e.e.e.e.e.e.e.e.4.e.e.e.e.4.+.! ! ! ! x f r r f r r # # # #                         ",
"                      +.! +.e.e.e.e.e.e.e.e.e.e.e.e.e.e.3.e.e.e.e.e.e.e.e.e.+.! ! ! ! ! ! f r f f f r r # # # #                         ",
"                      -.! X.4.4.e.e.e.e.e.e.e.e.e.e.e.8.e.u.e.e.4.e.e.e.e.e.X.! ! ! ! ! ! f r f f r r r # # # #                         ",
"                      +.! ! X.X.4.e.e.e.e.e.8.e.e.e.e.e.e.e.i.e.e.e.e.e.X.! ! ! J y f r f f r r f r r r # # # #                         ",
"                      4.! ! ! X.e.e.e.e.e.e.e.e.e.e.e.8.e.e.e.e.e.e.e.e.X.! ! ! J r i i r r f f r r r r # # # #                         ",
"                      +.! ! ! X.X.X.4.e.e.y.e.8.e.8.e.e.e.e.e.e.e.4.+.X.! ! J C f i r , & , r f f r & & # # # #                         ",
"                      :.! _ ! ! ! ! 4.e.e.e.e.e.e.e.e.e.e.e.e.4.e.e.X.! ! ! C r y r r # # , r r r , # # # # # #                         ",
"                      +.! _ ! J f C 4.e.e.e.4.4.+.e.e.4.+.4.e.4.+.+.! ! ! X.C r f r , # # & , , , & # # # # # #                         ",
"                      :.! ! ! J # # X.e.e.e.+.! ! e.7.X.! 4.e.4.! ! ! ! ! ! C t r r r # # # # # # # # # # # # #                         ",
"                      +.! ! J C & , X.4.4.e.+.! X.4.4.X.! +.4.+.! ! X.! ! J A z f r r # # # # # # # # # # # # #                         ",
"          /./.Q.Q.    -.! f # , J ! ! X.X.' ! ! ! X.! ! ! X.! ! ! ! ! ! f f L 4.` i r r r & # # # # # # # # # #                 R.      ",
"          /._._./.    +.! r # , J ! ! ! ! P ! X.! ! ! ! ! ! ! ! ! ! ! ! f r ! 4.X.f r i r & # # # # # # # # # #                 `.      ",
"              /.T.) C r & f C f , , J ` C f C ! ! X.! ! ! ! ! ! ! ! x f i y ! 4.X.f r & & # # # # # # # # # # $           R./.l.;.      ",
"              oX{.i & # # r ! C # # J ' f , f ! X.` ! X.! ! ! ! X.J f r r r ! e.X.r , # # # # # # # # # # # # $           `.%Xh.l       ",
"              b.z.P f > # r ! J i f X.+.C , f X.! ! ! ! ! J C C C C t r C C J J f & & # # # # # # # r r # # # #           x.x.4.J       ",
"              X.! ! ! , # , ! ! ! X.+.4.J , f _ X.! ! ` ! C f r r y i f J ! f 6 , # # # # # # # # & ! J $ # # #           X.P L !       ",
"              X._ ! ! f , f ! ! _ ! -.4.Z , f J J J J J J f f r , , , 4 J ! f , : # # # # # # # # & J J , & # # f         ! J ! X.      ",
"    _./.B.C X.4.4.! ! ! ! ! ! ! ! ! 4.6.J , r i r f y f f i r , # # # # C ! C 6 & # # # # # # # # , ! L r , , r , r r , r , r _ 4.      ",
"    /.{.B.! _ 4.+.X.! J J K ! ! J ! +.4.C 5 r r r r r f f f C 6 # # # & C J f , , # # # & # # # # , J Z r , , , , r r 4 , r , X.4.      ",
"        h._ X.+.+.+.X.r # C 4.X.& & J ' x , , r , # % ! 4.+.+.J # # C J r r r , : # & +.6., # , J C r r , r r 4 C X.! , , , r ! e.      ",
"          ! ! o.+.+.+.r # f 4.! # # A ! f 4 6 , , # # X.4.3.e.J # & J ! r , , r & # & +.e.r # t ! A 4 , , , r , Z +.! r , , , X.4.      ",
"    4.! ! f f z C +.X.f & C :.O.J J X.X.J J z 4 r C J X.+.O.X.C & , i f r r , , r C C o.X.J C ! X.! Z C r 4 C ! ! X.J , r , r ! 4.      ",
"    ! r 4 , 6 , r X.+.f , C o.+.o.+.+.+.X._ Z , f +.+.+.+._ ! Z r , , , r , , , f L ! L L X.X.+.@.X.! ! r 4 ! +._ ! Z 4 4 , 4 X.4.      ",
"    ! , r f C f C ! X.J C ! +.+.X.X.o.X._ ! J Z J +.+.o.X.! ! J C z f z C C C C C X.X._ ! X.X.X.+.X._ ! C f ! X._ L J z c C f X.e.      ",
"    ! , z ! ! ! ! ! ! X.+.+.+.+.! ! ! ! ! U _ @.+.+.+._ _ ! ! ! ! ! P ! o.+.X.! ! +.-.+.+.! ! X.+.+.+.@.! ! ! ! ! ! ! _ ! ! ! +.4.      ",
"    ! , f J J J Z J J L _ _ X.X.! ! _ ! ! ! [ X.X._ _ ! ! ! ! ! ! ! ! ' X.X.! ! X.+.+.+.+.! ! ! X.X.! ! J J J J J J A L J J J +.e.      ",
"    ! , 4 , r , 4 , , r , z ! ! ! ! L ! L ! ! ! J r 4 J J ! ! ! ! ! +.+._ ! ! ! ! ! ! ! ! ! ! ! ! A r , r , r , r , , r r , r X.e.      ",
"    +.f f f f f f f z f C J X.X.X.o.o.o.! ! X.! L f r ! X._ ! _ ! X.+.+.X.! ! ! ! X._ _ ! X.! _ _ J t t r r r r r r r r r r r ! e.      ",
"                                                                                                                                        ",
"                                                                                                                                        "
};
