/* XPM */
static char *wall_dl1681220794[] = {
/* columns rows colors chars-per-pixel */
"64 64 54 1 ",
"  c None",
". c #C8C8C8",
"X c #CBCBCB",
"o c gray80",
"O c #CDCDCD",
"+ c #CECECE",
"@ c gray81",
"# c #D0D0D0",
"$ c #D2D2D2",
"% c LightGray",
"& c gray83",
"* c #D5D5D5",
"= c gray84",
"- c #D7D7D7",
"; c #D8D8D8",
": c gray85",
"> c #DADADA",
", c gray86",
"< c gainsboro",
"1 c #DDDDDD",
"2 c gray87",
"3 c #DFDFDF",
"4 c gray88",
"5 c #E1E1E1",
"6 c #E2E2E2",
"7 c gray89",
"8 c #E4E4E4",
"9 c gray90",
"0 c #E6E6E6",
"q c #E7E7E7",
"w c gray91",
"e c #E9E9E9",
"r c #EAEAEA",
"t c gray92",
"y c #ECECEC",
"u c gray93",
"i c #EEEEEE",
"p c #EFEFEF",
"a c gray94",
"s c #F1F1F1",
"d c gray95",
"f c #F3F3F3",
"g c #F4F4F4",
"h c gray96",
"j c #F6F6F6",
"k c gray97",
"l c #F8F8F8",
"z c #F9F9F9",
"x c gray98",
"c c #FBFBFB",
"v c gray99",
"b c #FDFDFD",
"n c #FEFEFE",
"m c white",
/* pixels */
"                                                                ",
"                                                                ",
"                                                                ",
"        ,,,11-         ,,,-,,,1,-,1,                            ",
"       1xxxnnu        -hnxhxxxxxhxxx7                           ",
"       1nnnnna        #hxnnxxxhxnnnx1                           ",
"       1xnnnnu        #xnxnxhhxxnnnx7                           ",
"       1xnnnnu        -xnnxxnnnxxxnx7                           ",
"       1nnxnnu        -hnxxxnnnxhnnx7                           ",
"       1nxnnnu        -hnnhxnnnxxxnx1                           ",
"       1xxnnna        -hxxxxnnnxxxxx1                           ",
"       1nnnnnx1--#---#8xxxxnnnnnxxxxu,#---#----##-#             ",
"       1nxnnnnnxhhxhhxxnxxnxnxnnnxxxxhhhhhhxxxhhxhh7            ",
"       1xnnnnnnnxxxnnxxhxnnnxhhnxnnxxnnxxxxnnnxxxnn8            ",
"       1nnnnnnnxxxxnnxxxxnxxhxhxnnxxxnnnxxxxnxxxxxn8            ",
"       1nxnnnnxxxnxxnxnxnnxxxnxxxxnxxxxxnnxxhxxxnnn7            ",
"       1xnnnnnxxxnnxnnnxnxxxxnnxxnxnnxxnnnnhxhxnnxx7            ",
"       1xnnnnnnxxxnnnxnnnxxnxxxxxxnnnnnxnxxxxxxxxnn8            ",
"       1nnnnnnt7777787777777111777777annxxxnnnxxxnn7            ",
"       1xnxnnhX                      -xnnhxnnnxxxnn8            ",
"       1xnnnna                       +hnxxxxnnxhxxn8            ",
"       1xnnnnu                       +hnnxxxxxxnxnx7            ",
"       1nnnnnu                       +axnnxxxhxxnnx7            ",
"       1xnnnna                       #hnnxxxxxxxxnn8            ",
"       1nnnnnu                       #hnnxxxnnxxxnn8            ",
"       1xnxnnu                       +hnnxxnnnxxxnn7            ",
"       1nxnnna                        8tt8ttutttttt-            ",
"       1xnnnnh#                                                 ",
"       1nnxnnnautttttttttttt7                                   ",
"       1nxnnnnnnnnnnnnnnnnnna                                   ",
"       1xxnnnnnnnnnnnnnnnnnnh                                   ",
"       1nnnnnnnnnnnxnnnxnnnna                                   ",
"       1nxnnnnnnnnnnnnnnnnnna                                   ",
"       1xnnnnnnnnnnnnnnnnnnnh                                   ",
"       1nnnnnnnnnnnnnnnnnnnnh                                   ",
"       1nxnnnnnnnnnnnnnnnnnna                                   ",
"       1xxnnnnnnnnnnnnnnnnnna         1771177778777-            ",
"       1nnnnnnnnnnnnnnnnnnnnh        +hnxxxxnnnnnxn8            ",
"       1xnnnnnnnnnnnnnnnnnnnh        +annnxxxnnnnxn8            ",
"       1nnxnnnnnnnnnnnnnnnnna        +hnnnxxxxnnnxnt            ",
"       1xnnnnnnnnnnnnnnnnnnnh        #hnnxxxnnnnnnnt            ",
"       1xnnnnnnnnnnnnnnnnnnna        +hnnxxnnnnnxxn8            ",
"       1nnnnnnnnnnnnnnnnnnnnh        +anxxhnnnnnnxnt            ",
"       1xnxnnnnnnnnnnnnnnnnnh+       +hxxxxnnnnnnnn8            ",
"       1xnnnnnnnnnnnnnnnnnnnn8,,,,,,-txxxxnnnnnnnxn8            ",
"       1xnnnnnnnnnnnnnnnnnnnnnxxhxxxxxxxxnnxxnnnxnnt            ",
"       1nnnnnnnnnnnnnnnnnnnnnnnnxxxnxxxxnnxxxnnnnnn8            ",
"       1xnnnnnnnnnnnnnnnnnnnnnnxxxnxnxhnnxxxxnnnxxnt            ",
"       1nnxnnnnnnnnnnnnnnnnnnxxxnxxnxnxnnxxxnnnnnnn8            ",
"       1nxnnnnnnnnnnnnnnnnnnnxhxxnnxnnnnxxxnnnnnnxn8            ",
"       1xxxnnnnnnnnnnnnnnnnnnnnxxnnnnxxnxnxxxnnnnnnt            ",
"        ,,,,,18nnnnnnnnnnnnnnnnnxxnnnnnnnnxxxnnnxxnt            ",
"              Xannnnnnnnnnnnnnnnnnnnnnnnnnxnnnnnnnnh,##--##     ",
"               unnnnnnnnnnnnnnnnnnnnnnnnnnnnnnnnnnnnxxxxhxh-    ",
"               unnnnnnnnnnnnnnnnnnnnnnnnnnnnnnnnnnnnnnnnnnx-    ",
"               annnnnnnnnnnnnnnnnnnnnnnnnnnnnnnnnnnnnnnnnnx-    ",
"               unnnnnnnnnxnnnnnnnnnnnxnnnnnnnxnnxnnnnnnnnnx-    ",
"               annnnnnnnnnnnnnnnnnnnnnnnnnnnnnnnnnnnnnnnnnx-    ",
"               unnnnnnnnnnnnnnnnnnnnnnnnnnnnnnnnnnnnnnnnnnx-    ",
"               18t88888888t8888t888t8888888t888t88t88888888     ",
"                                                                ",
"                                                                ",
"                                                                ",
"                                                                "
};
