/* XPM */
static char *wall_ul1681220793[] = {
/* columns rows colors chars-per-pixel */
"64 64 9 1 ",
"  c None",
". c #F8F8F8",
"X c #F9F9F9",
"o c gray98",
"O c #FBFBFB",
"+ c gray99",
"@ c #FDFDFD",
"# c #FEFEFE",
"$ c white",
/* pixels */
"                                                                ",
"                                                                ",
"                                                                ",
"                                                                ",
"                                                                ",
"                                                                ",
"                                                                ",
"              ################.#######.###....#.#.##.##.#       ",
"              ##############...####.####.#.#.#.#########..      ",
"              ##############..###.##.##....##..###.##.#...      ",
"              ################..#.#..##.#......#...#.#.###      ",
"              #################..##...####...####..#.#...#      ",
"              ################.###.#.#.##.##.##...#.#.##.#      ",
"              ##############        ...########..#              ",
"             ##############          .#..####.....              ",
"      .##..################          ##...###..###              ",
"      ###...###############          ###..###..###              ",
"      .##..################          .#.##....###.              ",
"      .####...#############          .###....####.              ",
"      ..##..###############          ###..#.#...##              ",
"      ###...#                        ##...###..##.              ",
"      ######                         #.#.####..###              ",
"      ###.##                         ##...###..##.              ",
"      ######                         .###.....###.              ",
"      ######                         .###....#####              ",
"      ##.###                         ###..###....#              ",
"      ######                         ##..####..###              ",
"      ##.###                         .#...##.#.##               ",
"      #.####                         ..#.##                     ",
"      ##########.##          ##.###..#..##                      ",
"      #########..##.         ###.#.#.####.                      ",
"      ##.#####...###         ....###...##.                      ",
"      #.#####...####         .#.#.#.##.#.#                      ",
"      #######.##.#..         ..####.###...                      ",
"      ###.####...##.         #.##.#######.                      ",
"      #########..###         ..########.#.                      ",
"      ###.##########         .####.#.##..#                      ",
"      ##############         .#..########.                      ",
"      #.#######..###         #..#########.                      ",
"      ##############         ...##.#.#..#.                      ",
"      ##########.###         .###..###....                      ",
"      #########...##         ###..#..##.##                      ",
"      ###.###                #.....#                            ",
"      ######                 #.##..                             ",
"      ######          ....####..#..         #..##.              ",
"      ##.###          ########..###         #..###              ",
"      ######          ###.###..####         #.#.##              ",
"      #.####          ###.###..##..         ..##..              ",
"      ######          ######..####.         ...##.              ",
"      ##.###          ###..###...##          #.##               ",
"      ###.##          ###.####..###                             ",
"      .##...          .#...###...##                             ",
"      ..##.#          .###...#.##..                             ",
"      .####.          ###.....#####                             ",
"      #.....          ##..###...#.#                             ",
"      ###..#          .##..###..###                             ",
"       ##..#          ##..#####..#.                             ",
"                                                                ",
"                                                                ",
"                                                                ",
"                                                                ",
"                                                                ",
"                                                                ",
"                                                                "
};
