/* XPM */
static char *wall_u1681220794[] = {
/* columns rows colors chars-per-pixel */
"64 64 39 1 ",
"  c None",
". c gray85",
"X c #DADADA",
"o c gray86",
"O c gainsboro",
"+ c #DDDDDD",
"@ c gray87",
"# c #DFDFDF",
"$ c #E1E1E1",
"% c #E2E2E2",
"& c gray89",
"* c #E4E4E4",
"= c gray90",
"- c #E6E6E6",
"; c #E7E7E7",
": c gray91",
"> c #E9E9E9",
", c #EAEAEA",
"< c gray92",
"1 c #ECECEC",
"2 c gray93",
"3 c #EEEEEE",
"4 c #EFEFEF",
"5 c gray94",
"6 c #F1F1F1",
"7 c gray95",
"8 c #F3F3F3",
"9 c #F4F4F4",
"0 c gray96",
"q c #F6F6F6",
"w c gray97",
"e c #F8F8F8",
"r c #F9F9F9",
"t c gray98",
"y c #FBFBFB",
"u c gray99",
"i c #FDFDFD",
"p c #FEFEFE",
"a c white",
/* pixels */
"                                                                ",
"                                                                ",
"                                                                ",
"   #%;;;;%;%;%%;%;;;;%;%;%%;%;;;;%;%;%;                         ",
"   0yuuuuuuuyuuuuuuuuuuuyyuuuuuuuuuuyuuuuuuuuuuuuuuuuuuuuuuu    ",
"   0uuuuuuuuuuuuuuuuuuuuuuuuuuuuuuuuuuuuuuuuuuuuuuuuuuuuuuuu    ",
"   0uuuuuuuuuuuuuuuuuuuuuuuuuuuuuuuuuuuuuuuuuuuuuuuuuuuuuuuu    ",
"   0uuuuuuuuuuuuuuuuuuuuuuuuuuuuuuuuuuuuuuuuuuuuuuuuuuuuuuuu    ",
"   0uuuuuuuuuuuuuuuuuuuuuuuuuuuuuuuuuuuuuuuuuuuuuuuuuuuuuuuu    ",
"   0uuuuuuuuuuuuuuuuuuuuuuuuuuuuuuuuuuuuuuuuuuuuuuuuuuuuuuuu    ",
"   0uuuuuuuuuuuuuuuuuuuuuuuuuuuuuuuuuuuuuuuuuuuuuuuuuuuuuuuu    ",
"   yuuuuuuuuuuuuuuuuuuuuuuuuuuuuuuuuuuuuuuuuuuuuuuuuuuuuuuuu    ",
"   0uyuuuuuuuuuuuuuuuuuuuuuuuuuuuuuuuuuuuuuuuuyuuuuuuuuuuyyy    ",
"   0uyuuuuuuuuuyuuuuuuuuuuuuuuuuuuuuuuuuuuuuuuyyuuuuuuuuyyyy    ",
"   8uuuuuuuuuyuyuuuuuuuuuuuuuuuuuuuuuuuuuuuuuuuuuuuuuuuuuyyy    ",
"   8uuuuuuuuuyyyuuuuuuuuuuuuuuuuuuuuuuuuuuuuuuuuyuuuuuuuuuu0    ",
"   8yyuuuuuuuyyyyuuuuuuuuuuuuuuuuuuuuuuuuuuuuuyyyyuuyyuuuuy0    ",
"   8yyyuuyyuuuyyyuuuuuuuuuuuuuuuuuuuuuuuuuuuuu0yyuuuyyuuyyy0    ",
"   0yyyyuy0yuuuyyyuuuuuuuuuuuuuuuuuuuuuuuuuuuuyyuuuyyyuyyyyy    ",
"   0yyuuyyyyuuuuyyuuuuuuuuuuuuuuuuuuuuuuuuuuuuuuuuyyyuuyyyyy    ",
"   800000yyyyuuuu00yyyy0y0yy0y0yuuuuuuuuuuuuuuuuuu0yy0yyyyyy    ",
"         o8yyyuy<o             <uuuuuuuuuuuuuuuuuuyy0           ",
"          <yyyyyo               uuuuuuuuuuuuuuuuyyyy            ",
"          <yu0y0                uuuuuuuuuuuuuuuuyyy0            ",
"          1uuyyy                uuuuuuuuuuuuuuuuyuuu            ",
"          8uuyy0                uuuuuuuuuuuuuuuyyuuu            ",
"          1uuuy0                uuuuuuuuuuuuuuuyyyuu            ",
"          <uuuu0                uuuuuuuuuuuuuuyyyuuy            ",
"          <uuuy0                uuuuuuuuuuuuuyy0uuuy            ",
"          1uuuy0                uuuuuuuuuuuuuuyyyyuy            ",
"          %11<<<                yyyyyyuyyyyyyyyy0yuy            ",
"                                                                ",
"                  188118811811                                  ",
"                 1uuuuuuuuuuuu8                       yuyyyy    ",
"                 8uuuuuuuuuuuu8                       yuuuu0    ",
"                 1uuuuuuuuuuuu8                       yuuuy0    ",
"                 8uuuuuuuuuuuu0                       uuyyy0    ",
"                 1uuuuuuuuuuuu8                       uuy0yy    ",
"                 1uuuuuuuuuuuu8                       yuyyyy    ",
"                 8uuuuuuuuuuuu8                       yyu0yy    ",
"                 1uuuuuuuuuuuu8                                 ",
"                 8uuuuuuuuuuuu8                                 ",
"   <8181;        1uuuuuuuuuuuu0                                 ",
"   0yyuu8        1uuuuuuuuuuuu8                                 ",
"   0yyyu8        1uuuuuuuuuuuu8                                 ",
"   8y0uu8        8uuuuuuuuuuuu8                                 ",
"   8uuuu8        1uuuuuuuuuuuu8                                 ",
"   8uuuu1        8uuuuuuuuuuuu8                                 ",
"   8yuuu8        1uuuuuuuuuuuu0                                 ",
"   18100<        <y0yyy0y0yyy01                                 ",
"                                                                ",
"                                               ooo##            ",
"                                              ;000y0%           ",
"                                              %yyuuy;           ",
"                                              %yuuuy%           ",
"                                              %0uuuu%           ",
"                                              ;y0yuy;           ",
"                                              <yyyuy;           ",
"                                              <yyyyy%           ",
"                                              o;;;<;            ",
"                                                                ",
"                                                                ",
"                                                                ",
"                                                                "
};
